<?xml version="1.0" encoding="utf-8" standalone="no"?>
<!DOCTYPE svg PUBLIC "-//W3C//DTD SVG 1.1//EN"
  "http://www.w3.org/Graphics/SVG/1.1/DTD/svg11.dtd">
<svg xmlns:xlink="http://www.w3.org/1999/xlink" width="712.690625pt" height="208.042031pt" viewBox="0 0 712.690625 208.042031" xmlns="http://www.w3.org/2000/svg" version="1.1">
 <metadata>
  <rdf:RDF xmlns:dc="http://purl.org/dc/elements/1.1/" xmlns:cc="http://creativecommons.org/ns#" xmlns:rdf="http://www.w3.org/1999/02/22-rdf-syntax-ns#">
   <cc:Work>
    <dc:type rdf:resource="http://purl.org/dc/dcmitype/StillImage"/>
    <dc:date>2025-12-16T11:57:59.052610</dc:date>
    <dc:format>image/svg+xml</dc:format>
    <dc:creator>
     <cc:Agent>
      <dc:title>Matplotlib v3.10.0, https://matplotlib.org/</dc:title>
     </cc:Agent>
    </dc:creator>
   </cc:Work>
  </rdf:RDF>
 </metadata>
 <defs>
  <style type="text/css">*{stroke-linejoin: round; stroke-linecap: butt}</style>
 </defs>
 <g id="figure_1">
  <g id="patch_1">
   <path d="M 0 208.042031 
L 712.690625 208.042031 
L 712.690625 0 
L 0 0 
z
" style="fill: #ffffff"/>
  </g>
  <g id="axes_1">
   <g id="patch_2">
    <path d="M 49.950625 169.517969 
L 705.490625 169.517969 
L 705.490625 23.077969 
L 49.950625 23.077969 
z
" style="fill: #ffffff"/>
   </g>
   <g id="patch_3">
    <path d="M 52.999648 91.329984 
L 57.065013 91.329984 
L 57.065013 126.266097 
L 52.999648 126.266097 
z
" clip-path="url(#p53b2c77d88)" style="fill: #ff7f0e; opacity: 0.8"/>
   </g>
   <g id="patch_4">
    <path d="M 58.081354 91.329984 
L 62.146718 91.329984 
L 62.146718 132.697751 
L 58.081354 132.697751 
z
" clip-path="url(#p53b2c77d88)" style="fill: #ff7f0e; opacity: 0.8"/>
   </g>
   <g id="patch_5">
    <path d="M 63.163059 91.329984 
L 67.228423 91.329984 
L 67.228423 54.11213 
L 63.163059 54.11213 
z
" clip-path="url(#p53b2c77d88)" style="fill: #ff7f0e; opacity: 0.8"/>
   </g>
   <g id="patch_6">
    <path d="M 68.244765 91.329984 
L 72.310129 91.329984 
L 72.310129 49.823044 
L 68.244765 49.823044 
z
" clip-path="url(#p53b2c77d88)" style="fill: #ff7f0e; opacity: 0.8"/>
   </g>
   <g id="patch_7">
    <path d="M 73.32647 91.329984 
L 77.391834 91.329984 
L 77.391834 49.994722 
L 73.32647 49.994722 
z
" clip-path="url(#p53b2c77d88)" style="fill: #ff7f0e; opacity: 0.8"/>
   </g>
   <g id="patch_8">
    <path d="M 78.408175 91.329984 
L 82.47354 91.329984 
L 82.47354 143.192948 
L 78.408175 143.192948 
z
" clip-path="url(#p53b2c77d88)" style="fill: #ff7f0e; opacity: 0.8"/>
   </g>
   <g id="patch_9">
    <path d="M 83.489881 91.329984 
L 87.555245 91.329984 
L 87.555245 77.263271 
L 83.489881 77.263271 
z
" clip-path="url(#p53b2c77d88)" style="fill: #ff7f0e; opacity: 0.8"/>
   </g>
   <g id="patch_10">
    <path d="M 88.571586 91.329984 
L 92.636951 91.329984 
L 92.636951 132.276541 
L 88.571586 132.276541 
z
" clip-path="url(#p53b2c77d88)" style="fill: #ff7f0e; opacity: 0.8"/>
   </g>
   <g id="patch_11">
    <path d="M 93.653292 91.329984 
L 97.718656 91.329984 
L 97.718656 86.756553 
L 93.653292 86.756553 
z
" clip-path="url(#p53b2c77d88)" style="fill: #ff7f0e; opacity: 0.8"/>
   </g>
   <g id="patch_12">
    <path d="M 98.734997 91.329984 
L 102.800361 91.329984 
L 102.800361 147.397837 
L 98.734997 147.397837 
z
" clip-path="url(#p53b2c77d88)" style="fill: #ff7f0e; opacity: 0.8"/>
   </g>
   <g id="patch_13">
    <path d="M 103.816703 91.329984 
L 107.882067 91.329984 
L 107.882067 127.483102 
L 103.816703 127.483102 
z
" clip-path="url(#p53b2c77d88)" style="fill: #ff7f0e; opacity: 0.8"/>
   </g>
   <g id="patch_14">
    <path d="M 108.898408 91.329984 
L 112.963772 91.329984 
L 112.963772 67.456289 
L 108.898408 67.456289 
z
" clip-path="url(#p53b2c77d88)" style="fill: #ff7f0e; opacity: 0.8"/>
   </g>
   <g id="patch_15">
    <path d="M 113.980113 91.329984 
L 118.045478 91.329984 
L 118.045478 72.18971 
L 113.980113 72.18971 
z
" clip-path="url(#p53b2c77d88)" style="fill: #ff7f0e; opacity: 0.8"/>
   </g>
   <g id="patch_16">
    <path d="M 119.061819 91.329984 
L 123.127183 91.329984 
L 123.127183 52.292954 
L 119.061819 52.292954 
z
" clip-path="url(#p53b2c77d88)" style="fill: #ff7f0e; opacity: 0.8"/>
   </g>
   <g id="patch_17">
    <path d="M 124.143524 91.329984 
L 128.208889 91.329984 
L 128.208889 143.940407 
L 124.143524 143.940407 
z
" clip-path="url(#p53b2c77d88)" style="fill: #ff7f0e; opacity: 0.8"/>
   </g>
   <g id="patch_18">
    <path d="M 129.22523 91.329984 
L 133.290594 91.329984 
L 133.290594 61.547598 
L 129.22523 61.547598 
z
" clip-path="url(#p53b2c77d88)" style="fill: #ff7f0e; opacity: 0.8"/>
   </g>
   <g id="patch_19">
    <path d="M 134.306935 91.329984 
L 138.372299 91.329984 
L 138.372299 125.84372 
L 134.306935 125.84372 
z
" clip-path="url(#p53b2c77d88)" style="fill: #ff7f0e; opacity: 0.8"/>
   </g>
   <g id="patch_20">
    <path d="M 139.388641 91.329984 
L 143.454005 91.329984 
L 143.454005 135.945185 
L 139.388641 135.945185 
z
" clip-path="url(#p53b2c77d88)" style="fill: #ff7f0e; opacity: 0.8"/>
   </g>
   <g id="patch_21">
    <path d="M 144.470346 91.329984 
L 148.53571 91.329984 
L 148.53571 50.947949 
L 144.470346 50.947949 
z
" clip-path="url(#p53b2c77d88)" style="fill: #ff7f0e; opacity: 0.8"/>
   </g>
   <g id="patch_22">
    <path d="M 149.552051 91.329984 
L 153.617416 91.329984 
L 153.617416 138.698462 
L 149.552051 138.698462 
z
" clip-path="url(#p53b2c77d88)" style="fill: #ff7f0e; opacity: 0.8"/>
   </g>
   <g id="patch_23">
    <path d="M 154.633757 91.329984 
L 158.699121 91.329984 
L 158.699121 55.636063 
L 154.633757 55.636063 
z
" clip-path="url(#p53b2c77d88)" style="fill: #ff7f0e; opacity: 0.8"/>
   </g>
   <g id="patch_24">
    <path d="M 159.715462 91.329984 
L 163.780827 91.329984 
L 163.780827 154.647891 
L 159.715462 154.647891 
z
" clip-path="url(#p53b2c77d88)" style="fill: #ff7f0e; opacity: 0.8"/>
   </g>
   <g id="patch_25">
    <path d="M 164.797168 91.329984 
L 168.862532 91.329984 
L 168.862532 50.687092 
L 164.797168 50.687092 
z
" clip-path="url(#p53b2c77d88)" style="fill: #ff7f0e; opacity: 0.8"/>
   </g>
   <g id="patch_26">
    <path d="M 169.878873 91.329984 
L 173.944237 91.329984 
L 173.944237 48.738891 
L 169.878873 48.738891 
z
" clip-path="url(#p53b2c77d88)" style="fill: #ff7f0e; opacity: 0.8"/>
   </g>
   <g id="patch_27">
    <path d="M 174.960578 91.329984 
L 179.025943 91.329984 
L 179.025943 143.007295 
L 174.960578 143.007295 
z
" clip-path="url(#p53b2c77d88)" style="fill: #ff7f0e; opacity: 0.8"/>
   </g>
   <g id="patch_28">
    <path d="M 180.042284 91.329984 
L 184.107648 91.329984 
L 184.107648 38.418095 
L 180.042284 38.418095 
z
" clip-path="url(#p53b2c77d88)" style="fill: #ff7f0e; opacity: 0.8"/>
   </g>
   <g id="patch_29">
    <path d="M 185.123989 91.329984 
L 189.189354 91.329984 
L 189.189354 29.734332 
L 185.123989 29.734332 
z
" clip-path="url(#p53b2c77d88)" style="fill: #ff7f0e; opacity: 0.8"/>
   </g>
   <g id="patch_30">
    <path d="M 190.205695 91.329984 
L 194.271059 91.329984 
L 194.271059 58.394805 
L 190.205695 58.394805 
z
" clip-path="url(#p53b2c77d88)" style="fill: #ff7f0e; opacity: 0.8"/>
   </g>
   <g id="patch_31">
    <path d="M 195.2874 91.329984 
L 199.352765 91.329984 
L 199.352765 134.69602 
L 195.2874 134.69602 
z
" clip-path="url(#p53b2c77d88)" style="fill: #ff7f0e; opacity: 0.8"/>
   </g>
   <g id="patch_32">
    <path d="M 200.369106 91.329984 
L 204.43447 91.329984 
L 204.43447 37.505963 
L 200.369106 37.505963 
z
" clip-path="url(#p53b2c77d88)" style="fill: #ff7f0e; opacity: 0.8"/>
   </g>
   <g id="patch_33">
    <path d="M 205.450811 91.329984 
L 209.516175 91.329984 
L 209.516175 106.469055 
L 205.450811 106.469055 
z
" clip-path="url(#p53b2c77d88)" style="fill: #ff7f0e; opacity: 0.8"/>
   </g>
   <g id="patch_34">
    <path d="M 210.532516 91.329984 
L 214.597881 91.329984 
L 214.597881 126.684768 
L 210.532516 126.684768 
z
" clip-path="url(#p53b2c77d88)" style="fill: #ff7f0e; opacity: 0.8"/>
   </g>
   <g id="patch_35">
    <path d="M 215.614222 91.329984 
L 219.679586 91.329984 
L 219.679586 63.80295 
L 215.614222 63.80295 
z
" clip-path="url(#p53b2c77d88)" style="fill: #ff7f0e; opacity: 0.8"/>
   </g>
   <g id="patch_36">
    <path d="M 220.695927 91.329984 
L 224.761292 91.329984 
L 224.761292 107.579766 
L 220.695927 107.579766 
z
" clip-path="url(#p53b2c77d88)" style="fill: #ff7f0e; opacity: 0.8"/>
   </g>
   <g id="patch_37">
    <path d="M 225.777633 91.329984 
L 229.842997 91.329984 
L 229.842997 54.994042 
L 225.777633 54.994042 
z
" clip-path="url(#p53b2c77d88)" style="fill: #ff7f0e; opacity: 0.8"/>
   </g>
   <g id="patch_38">
    <path d="M 230.859338 91.329984 
L 234.924703 91.329984 
L 234.924703 35.826363 
L 230.859338 35.826363 
z
" clip-path="url(#p53b2c77d88)" style="fill: #ff7f0e; opacity: 0.8"/>
   </g>
   <g id="patch_39">
    <path d="M 235.941044 91.329984 
L 240.006408 91.329984 
L 240.006408 69.759442 
L 235.941044 69.759442 
z
" clip-path="url(#p53b2c77d88)" style="fill: #ff7f0e; opacity: 0.8"/>
   </g>
   <g id="patch_40">
    <path d="M 241.022749 91.329984 
L 245.088113 91.329984 
L 245.088113 126.310501 
L 241.022749 126.310501 
z
" clip-path="url(#p53b2c77d88)" style="fill: #ff7f0e; opacity: 0.8"/>
   </g>
   <g id="patch_41">
    <path d="M 246.104454 91.329984 
L 250.169819 91.329984 
L 250.169819 54.479469 
L 246.104454 54.479469 
z
" clip-path="url(#p53b2c77d88)" style="fill: #ff7f0e; opacity: 0.8"/>
   </g>
   <g id="patch_42">
    <path d="M 251.18616 91.329984 
L 255.251524 91.329984 
L 255.251524 138.680169 
L 251.18616 138.680169 
z
" clip-path="url(#p53b2c77d88)" style="fill: #ff7f0e; opacity: 0.8"/>
   </g>
   <g id="patch_43">
    <path d="M 256.267865 91.329984 
L 260.33323 91.329984 
L 260.33323 77.253047 
L 256.267865 77.253047 
z
" clip-path="url(#p53b2c77d88)" style="fill: #ff7f0e; opacity: 0.8"/>
   </g>
   <g id="patch_44">
    <path d="M 261.349571 91.329984 
L 265.414935 91.329984 
L 265.414935 45.26238 
L 261.349571 45.26238 
z
" clip-path="url(#p53b2c77d88)" style="fill: #ff7f0e; opacity: 0.8"/>
   </g>
   <g id="patch_45">
    <path d="M 266.431276 91.329984 
L 270.496641 91.329984 
L 270.496641 153.201074 
L 266.431276 153.201074 
z
" clip-path="url(#p53b2c77d88)" style="fill: #ff7f0e; opacity: 0.8"/>
   </g>
   <g id="patch_46">
    <path d="M 271.512982 91.329984 
L 275.578346 91.329984 
L 275.578346 126.6732 
L 271.512982 126.6732 
z
" clip-path="url(#p53b2c77d88)" style="fill: #ff7f0e; opacity: 0.8"/>
   </g>
   <g id="patch_47">
    <path d="M 276.594687 91.329984 
L 280.660051 91.329984 
L 280.660051 136.504832 
L 276.594687 136.504832 
z
" clip-path="url(#p53b2c77d88)" style="fill: #ff7f0e; opacity: 0.8"/>
   </g>
   <g id="patch_48">
    <path d="M 281.676392 91.329984 
L 285.741757 91.329984 
L 285.741757 117.453075 
L 281.676392 117.453075 
z
" clip-path="url(#p53b2c77d88)" style="fill: #ff7f0e; opacity: 0.8"/>
   </g>
   <g id="patch_49">
    <path d="M 286.758098 91.329984 
L 290.823462 91.329984 
L 290.823462 57.139154 
L 286.758098 57.139154 
z
" clip-path="url(#p53b2c77d88)" style="fill: #ff7f0e; opacity: 0.8"/>
   </g>
   <g id="patch_50">
    <path d="M 291.839803 91.329984 
L 295.905168 91.329984 
L 295.905168 143.361835 
L 291.839803 143.361835 
z
" clip-path="url(#p53b2c77d88)" style="fill: #ff7f0e; opacity: 0.8"/>
   </g>
   <g id="patch_51">
    <path d="M 296.921509 91.329984 
L 300.986873 91.329984 
L 300.986873 70.054946 
L 296.921509 70.054946 
z
" clip-path="url(#p53b2c77d88)" style="fill: #ff7f0e; opacity: 0.8"/>
   </g>
   <g id="patch_52">
    <path d="M 302.003214 91.329984 
L 306.068578 91.329984 
L 306.068578 39.144902 
L 302.003214 39.144902 
z
" clip-path="url(#p53b2c77d88)" style="fill: #ff7f0e; opacity: 0.8"/>
   </g>
   <g id="patch_53">
    <path d="M 307.08492 91.329984 
L 311.150284 91.329984 
L 311.150284 32.627663 
L 307.08492 32.627663 
z
" clip-path="url(#p53b2c77d88)" style="fill: #ff7f0e; opacity: 0.8"/>
   </g>
   <g id="patch_54">
    <path d="M 312.166625 91.329984 
L 316.231989 91.329984 
L 316.231989 113.984659 
L 312.166625 113.984659 
z
" clip-path="url(#p53b2c77d88)" style="fill: #ff7f0e; opacity: 0.8"/>
   </g>
   <g id="patch_55">
    <path d="M 317.24833 91.329984 
L 321.313695 91.329984 
L 321.313695 51.738332 
L 317.24833 51.738332 
z
" clip-path="url(#p53b2c77d88)" style="fill: #ff7f0e; opacity: 0.8"/>
   </g>
   <g id="patch_56">
    <path d="M 322.330036 91.329984 
L 326.3954 91.329984 
L 326.3954 133.287241 
L 322.330036 133.287241 
z
" clip-path="url(#p53b2c77d88)" style="fill: #ff7f0e; opacity: 0.8"/>
   </g>
   <g id="patch_57">
    <path d="M 327.411741 91.329984 
L 331.477106 91.329984 
L 331.477106 57.865619 
L 327.411741 57.865619 
z
" clip-path="url(#p53b2c77d88)" style="fill: #ff7f0e; opacity: 0.8"/>
   </g>
   <g id="patch_58">
    <path d="M 332.493447 91.329984 
L 336.558811 91.329984 
L 336.558811 45.587897 
L 332.493447 45.587897 
z
" clip-path="url(#p53b2c77d88)" style="fill: #ff7f0e; opacity: 0.8"/>
   </g>
   <g id="patch_59">
    <path d="M 337.575152 91.329984 
L 341.640516 91.329984 
L 341.640516 66.706238 
L 337.575152 66.706238 
z
" clip-path="url(#p53b2c77d88)" style="fill: #ff7f0e; opacity: 0.8"/>
   </g>
   <g id="patch_60">
    <path d="M 342.656858 91.329984 
L 346.722222 91.329984 
L 346.722222 79.060231 
L 342.656858 79.060231 
z
" clip-path="url(#p53b2c77d88)" style="fill: #ff7f0e; opacity: 0.8"/>
   </g>
   <g id="patch_61">
    <path d="M 347.738563 91.329984 
L 351.803927 91.329984 
L 351.803927 55.166917 
L 347.738563 55.166917 
z
" clip-path="url(#p53b2c77d88)" style="fill: #ff7f0e; opacity: 0.8"/>
   </g>
   <g id="patch_62">
    <path d="M 352.820268 91.329984 
L 356.885633 91.329984 
L 356.885633 140.018389 
L 352.820268 140.018389 
z
" clip-path="url(#p53b2c77d88)" style="fill: #ff7f0e; opacity: 0.8"/>
   </g>
   <g id="patch_63">
    <path d="M 357.901974 91.329984 
L 361.967338 91.329984 
L 361.967338 67.917841 
L 357.901974 67.917841 
z
" clip-path="url(#p53b2c77d88)" style="fill: #ff7f0e; opacity: 0.8"/>
   </g>
   <g id="patch_64">
    <path d="M 362.983679 91.329984 
L 367.049044 91.329984 
L 367.049044 79.069192 
L 362.983679 79.069192 
z
" clip-path="url(#p53b2c77d88)" style="fill: #ff7f0e; opacity: 0.8"/>
   </g>
   <g id="patch_65">
    <path d="M 368.065385 91.329984 
L 372.130749 91.329984 
L 372.130749 160.657945 
L 368.065385 160.657945 
z
" clip-path="url(#p53b2c77d88)" style="fill: #ff7f0e; opacity: 0.8"/>
   </g>
   <g id="patch_66">
    <path d="M 373.14709 91.329984 
L 377.212454 91.329984 
L 377.212454 137.865142 
L 373.14709 137.865142 
z
" clip-path="url(#p53b2c77d88)" style="fill: #ff7f0e; opacity: 0.8"/>
   </g>
   <g id="patch_67">
    <path d="M 378.228796 91.329984 
L 382.29416 91.329984 
L 382.29416 136.531168 
L 378.228796 136.531168 
z
" clip-path="url(#p53b2c77d88)" style="fill: #ff7f0e; opacity: 0.8"/>
   </g>
   <g id="patch_68">
    <path d="M 383.310501 91.329984 
L 387.375865 91.329984 
L 387.375865 63.45407 
L 383.310501 63.45407 
z
" clip-path="url(#p53b2c77d88)" style="fill: #ff7f0e; opacity: 0.8"/>
   </g>
   <g id="patch_69">
    <path d="M 388.392206 91.329984 
L 392.457571 91.329984 
L 392.457571 121.482394 
L 388.392206 121.482394 
z
" clip-path="url(#p53b2c77d88)" style="fill: #ff7f0e; opacity: 0.8"/>
   </g>
   <g id="patch_70">
    <path d="M 393.473912 91.329984 
L 397.539276 91.329984 
L 397.539276 129.752643 
L 393.473912 129.752643 
z
" clip-path="url(#p53b2c77d88)" style="fill: #ff7f0e; opacity: 0.8"/>
   </g>
   <g id="patch_71">
    <path d="M 398.555617 91.329984 
L 402.620982 91.329984 
L 402.620982 130.303809 
L 398.555617 130.303809 
z
" clip-path="url(#p53b2c77d88)" style="fill: #ff7f0e; opacity: 0.8"/>
   </g>
   <g id="patch_72">
    <path d="M 403.637323 91.329984 
L 407.702687 91.329984 
L 407.702687 68.978804 
L 403.637323 68.978804 
z
" clip-path="url(#p53b2c77d88)" style="fill: #ff7f0e; opacity: 0.8"/>
   </g>
   <g id="patch_73">
    <path d="M 408.719028 91.329984 
L 412.784392 91.329984 
L 412.784392 42.946765 
L 408.719028 42.946765 
z
" clip-path="url(#p53b2c77d88)" style="fill: #ff7f0e; opacity: 0.8"/>
   </g>
   <g id="patch_74">
    <path d="M 413.800734 91.329984 
L 417.866098 91.329984 
L 417.866098 67.427885 
L 413.800734 67.427885 
z
" clip-path="url(#p53b2c77d88)" style="fill: #ff7f0e; opacity: 0.8"/>
   </g>
   <g id="patch_75">
    <path d="M 418.882439 91.329984 
L 422.947803 91.329984 
L 422.947803 41.062987 
L 418.882439 41.062987 
z
" clip-path="url(#p53b2c77d88)" style="fill: #ff7f0e; opacity: 0.8"/>
   </g>
   <g id="patch_76">
    <path d="M 423.964144 91.329984 
L 428.029509 91.329984 
L 428.029509 126.184321 
L 423.964144 126.184321 
z
" clip-path="url(#p53b2c77d88)" style="fill: #ff7f0e; opacity: 0.8"/>
   </g>
   <g id="patch_77">
    <path d="M 429.04585 91.329984 
L 433.111214 91.329984 
L 433.111214 64.699748 
L 429.04585 64.699748 
z
" clip-path="url(#p53b2c77d88)" style="fill: #ff7f0e; opacity: 0.8"/>
   </g>
   <g id="patch_78">
    <path d="M 434.127555 91.329984 
L 438.19292 91.329984 
L 438.19292 120.68314 
L 434.127555 120.68314 
z
" clip-path="url(#p53b2c77d88)" style="fill: #ff7f0e; opacity: 0.8"/>
   </g>
   <g id="patch_79">
    <path d="M 439.209261 91.329984 
L 443.274625 91.329984 
L 443.274625 54.585465 
L 439.209261 54.585465 
z
" clip-path="url(#p53b2c77d88)" style="fill: #ff7f0e; opacity: 0.8"/>
   </g>
   <g id="patch_80">
    <path d="M 444.290966 91.329984 
L 448.35633 91.329984 
L 448.35633 117.022811 
L 444.290966 117.022811 
z
" clip-path="url(#p53b2c77d88)" style="fill: #ff7f0e; opacity: 0.8"/>
   </g>
   <g id="patch_81">
    <path d="M 449.372672 91.329984 
L 453.438036 91.329984 
L 453.438036 126.935166 
L 449.372672 126.935166 
z
" clip-path="url(#p53b2c77d88)" style="fill: #ff7f0e; opacity: 0.8"/>
   </g>
   <g id="patch_82">
    <path d="M 454.454377 91.329984 
L 458.519741 91.329984 
L 458.519741 138.759694 
L 454.454377 138.759694 
z
" clip-path="url(#p53b2c77d88)" style="fill: #ff7f0e; opacity: 0.8"/>
   </g>
   <g id="patch_83">
    <path d="M 459.536082 91.329984 
L 463.601447 91.329984 
L 463.601447 51.082196 
L 459.536082 51.082196 
z
" clip-path="url(#p53b2c77d88)" style="fill: #ff7f0e; opacity: 0.8"/>
   </g>
   <g id="patch_84">
    <path d="M 464.617788 91.329984 
L 468.683152 91.329984 
L 468.683152 134.43946 
L 464.617788 134.43946 
z
" clip-path="url(#p53b2c77d88)" style="fill: #ff7f0e; opacity: 0.8"/>
   </g>
   <g id="patch_85">
    <path d="M 469.699493 91.329984 
L 473.764858 91.329984 
L 473.764858 47.401062 
L 469.699493 47.401062 
z
" clip-path="url(#p53b2c77d88)" style="fill: #ff7f0e; opacity: 0.8"/>
   </g>
   <g id="patch_86">
    <path d="M 474.781199 91.329984 
L 478.846563 91.329984 
L 478.846563 130.670775 
L 474.781199 130.670775 
z
" clip-path="url(#p53b2c77d88)" style="fill: #ff7f0e; opacity: 0.8"/>
   </g>
   <g id="patch_87">
    <path d="M 479.862904 91.329984 
L 483.928268 91.329984 
L 483.928268 65.207709 
L 479.862904 65.207709 
z
" clip-path="url(#p53b2c77d88)" style="fill: #ff7f0e; opacity: 0.8"/>
   </g>
   <g id="patch_88">
    <path d="M 484.944609 91.329984 
L 489.009974 91.329984 
L 489.009974 161.078375 
L 484.944609 161.078375 
z
" clip-path="url(#p53b2c77d88)" style="fill: #ff7f0e; opacity: 0.8"/>
   </g>
   <g id="patch_89">
    <path d="M 490.026315 91.329984 
L 494.091679 91.329984 
L 494.091679 68.291892 
L 490.026315 68.291892 
z
" clip-path="url(#p53b2c77d88)" style="fill: #ff7f0e; opacity: 0.8"/>
   </g>
   <g id="patch_90">
    <path d="M 495.10802 91.329984 
L 499.173385 91.329984 
L 499.173385 58.559377 
L 495.10802 58.559377 
z
" clip-path="url(#p53b2c77d88)" style="fill: #ff7f0e; opacity: 0.8"/>
   </g>
   <g id="patch_91">
    <path d="M 500.189726 91.329984 
L 504.25509 91.329984 
L 504.25509 121.90519 
L 500.189726 121.90519 
z
" clip-path="url(#p53b2c77d88)" style="fill: #ff7f0e; opacity: 0.8"/>
   </g>
   <g id="patch_92">
    <path d="M 505.271431 91.329984 
L 509.336796 91.329984 
L 509.336796 151.970152 
L 505.271431 151.970152 
z
" clip-path="url(#p53b2c77d88)" style="fill: #ff7f0e; opacity: 0.8"/>
   </g>
   <g id="patch_93">
    <path d="M 510.353137 91.329984 
L 514.418501 91.329984 
L 514.418501 32.297477 
L 510.353137 32.297477 
z
" clip-path="url(#p53b2c77d88)" style="fill: #ff7f0e; opacity: 0.8"/>
   </g>
   <g id="patch_94">
    <path d="M 515.434842 91.329984 
L 519.500206 91.329984 
L 519.500206 56.742013 
L 515.434842 56.742013 
z
" clip-path="url(#p53b2c77d88)" style="fill: #ff7f0e; opacity: 0.8"/>
   </g>
   <g id="patch_95">
    <path d="M 520.516547 91.329984 
L 524.581912 91.329984 
L 524.581912 133.72191 
L 520.516547 133.72191 
z
" clip-path="url(#p53b2c77d88)" style="fill: #ff7f0e; opacity: 0.8"/>
   </g>
   <g id="patch_96">
    <path d="M 525.598253 91.329984 
L 529.663617 91.329984 
L 529.663617 42.470006 
L 525.598253 42.470006 
z
" clip-path="url(#p53b2c77d88)" style="fill: #ff7f0e; opacity: 0.8"/>
   </g>
   <g id="patch_97">
    <path d="M 530.679958 91.329984 
L 534.745323 91.329984 
L 534.745323 137.491906 
L 530.679958 137.491906 
z
" clip-path="url(#p53b2c77d88)" style="fill: #ff7f0e; opacity: 0.8"/>
   </g>
   <g id="patch_98">
    <path d="M 535.761664 91.329984 
L 539.827028 91.329984 
L 539.827028 132.635423 
L 535.761664 132.635423 
z
" clip-path="url(#p53b2c77d88)" style="fill: #ff7f0e; opacity: 0.8"/>
   </g>
   <g id="patch_99">
    <path d="M 540.843369 91.329984 
L 544.908734 91.329984 
L 544.908734 137.542192 
L 540.843369 137.542192 
z
" clip-path="url(#p53b2c77d88)" style="fill: #ff7f0e; opacity: 0.8"/>
   </g>
   <g id="patch_100">
    <path d="M 545.925075 91.329984 
L 549.990439 91.329984 
L 549.990439 50.586251 
L 545.925075 50.586251 
z
" clip-path="url(#p53b2c77d88)" style="fill: #ff7f0e; opacity: 0.8"/>
   </g>
   <g id="patch_101">
    <path d="M 551.00678 91.329984 
L 555.072144 91.329984 
L 555.072144 146.543057 
L 551.00678 146.543057 
z
" clip-path="url(#p53b2c77d88)" style="fill: #ff7f0e; opacity: 0.8"/>
   </g>
   <g id="patch_102">
    <path d="M 556.088485 91.329984 
L 560.15385 91.329984 
L 560.15385 124.346194 
L 556.088485 124.346194 
z
" clip-path="url(#p53b2c77d88)" style="fill: #ff7f0e; opacity: 0.8"/>
   </g>
   <g id="patch_103">
    <path d="M 561.170191 91.329984 
L 565.235555 91.329984 
L 565.235555 60.554728 
L 561.170191 60.554728 
z
" clip-path="url(#p53b2c77d88)" style="fill: #ff7f0e; opacity: 0.8"/>
   </g>
   <g id="patch_104">
    <path d="M 566.251896 91.329984 
L 570.317261 91.329984 
L 570.317261 59.360319 
L 566.251896 59.360319 
z
" clip-path="url(#p53b2c77d88)" style="fill: #ff7f0e; opacity: 0.8"/>
   </g>
   <g id="patch_105">
    <path d="M 571.333602 91.329984 
L 575.398966 91.329984 
L 575.398966 122.955375 
L 571.333602 122.955375 
z
" clip-path="url(#p53b2c77d88)" style="fill: #ff7f0e; opacity: 0.8"/>
   </g>
   <g id="patch_106">
    <path d="M 576.415307 91.329984 
L 580.480672 91.329984 
L 580.480672 122.046138 
L 576.415307 122.046138 
z
" clip-path="url(#p53b2c77d88)" style="fill: #ff7f0e; opacity: 0.8"/>
   </g>
   <g id="patch_107">
    <path d="M 581.497013 91.329984 
L 585.562377 91.329984 
L 585.562377 41.119971 
L 581.497013 41.119971 
z
" clip-path="url(#p53b2c77d88)" style="fill: #ff7f0e; opacity: 0.8"/>
   </g>
   <g id="patch_108">
    <path d="M 586.578718 91.329984 
L 590.644082 91.329984 
L 590.644082 37.848286 
L 586.578718 37.848286 
z
" clip-path="url(#p53b2c77d88)" style="fill: #ff7f0e; opacity: 0.8"/>
   </g>
   <g id="patch_109">
    <path d="M 591.660423 91.329984 
L 595.725788 91.329984 
L 595.725788 132.984659 
L 591.660423 132.984659 
z
" clip-path="url(#p53b2c77d88)" style="fill: #ff7f0e; opacity: 0.8"/>
   </g>
   <g id="patch_110">
    <path d="M 596.742129 91.329984 
L 600.807493 91.329984 
L 600.807493 130.408138 
L 596.742129 130.408138 
z
" clip-path="url(#p53b2c77d88)" style="fill: #ff7f0e; opacity: 0.8"/>
   </g>
   <g id="patch_111">
    <path d="M 601.823834 91.329984 
L 605.889199 91.329984 
L 605.889199 61.37897 
L 601.823834 61.37897 
z
" clip-path="url(#p53b2c77d88)" style="fill: #ff7f0e; opacity: 0.8"/>
   </g>
   <g id="patch_112">
    <path d="M 606.90554 91.329984 
L 610.970904 91.329984 
L 610.970904 41.408806 
L 606.90554 41.408806 
z
" clip-path="url(#p53b2c77d88)" style="fill: #ff7f0e; opacity: 0.8"/>
   </g>
   <g id="patch_113">
    <path d="M 611.987245 91.329984 
L 616.052609 91.329984 
L 616.052609 147.623335 
L 611.987245 147.623335 
z
" clip-path="url(#p53b2c77d88)" style="fill: #ff7f0e; opacity: 0.8"/>
   </g>
   <g id="patch_114">
    <path d="M 617.068951 91.329984 
L 621.134315 91.329984 
L 621.134315 128.438755 
L 617.068951 128.438755 
z
" clip-path="url(#p53b2c77d88)" style="fill: #ff7f0e; opacity: 0.8"/>
   </g>
   <g id="patch_115">
    <path d="M 622.150656 91.329984 
L 626.21602 91.329984 
L 626.21602 129.449961 
L 622.150656 129.449961 
z
" clip-path="url(#p53b2c77d88)" style="fill: #ff7f0e; opacity: 0.8"/>
   </g>
   <g id="patch_116">
    <path d="M 627.232361 91.329984 
L 631.297726 91.329984 
L 631.297726 122.741284 
L 627.232361 122.741284 
z
" clip-path="url(#p53b2c77d88)" style="fill: #ff7f0e; opacity: 0.8"/>
   </g>
   <g id="patch_117">
    <path d="M 632.314067 91.329984 
L 636.379431 91.329984 
L 636.379431 65.891503 
L 632.314067 65.891503 
z
" clip-path="url(#p53b2c77d88)" style="fill: #ff7f0e; opacity: 0.8"/>
   </g>
   <g id="patch_118">
    <path d="M 637.395772 91.329984 
L 641.461137 91.329984 
L 641.461137 162.861605 
L 637.395772 162.861605 
z
" clip-path="url(#p53b2c77d88)" style="fill: #ff7f0e; opacity: 0.8"/>
   </g>
   <g id="patch_119">
    <path d="M 642.477478 91.329984 
L 646.542842 91.329984 
L 646.542842 119.67236 
L 642.477478 119.67236 
z
" clip-path="url(#p53b2c77d88)" style="fill: #ff7f0e; opacity: 0.8"/>
   </g>
   <g id="patch_120">
    <path d="M 647.559183 91.329984 
L 651.624547 91.329984 
L 651.624547 122.256738 
L 647.559183 122.256738 
z
" clip-path="url(#p53b2c77d88)" style="fill: #ff7f0e; opacity: 0.8"/>
   </g>
   <g id="patch_121">
    <path d="M 652.640889 91.329984 
L 656.706253 91.329984 
L 656.706253 130.862453 
L 652.640889 130.862453 
z
" clip-path="url(#p53b2c77d88)" style="fill: #ff7f0e; opacity: 0.8"/>
   </g>
   <g id="patch_122">
    <path d="M 657.722594 91.329984 
L 661.787958 91.329984 
L 661.787958 52.20011 
L 657.722594 52.20011 
z
" clip-path="url(#p53b2c77d88)" style="fill: #ff7f0e; opacity: 0.8"/>
   </g>
   <g id="patch_123">
    <path d="M 662.804299 91.329984 
L 666.869664 91.329984 
L 666.869664 51.972163 
L 662.804299 51.972163 
z
" clip-path="url(#p53b2c77d88)" style="fill: #ff7f0e; opacity: 0.8"/>
   </g>
   <g id="patch_124">
    <path d="M 667.886005 91.329984 
L 671.951369 91.329984 
L 671.951369 34.394506 
L 667.886005 34.394506 
z
" clip-path="url(#p53b2c77d88)" style="fill: #ff7f0e; opacity: 0.8"/>
   </g>
   <g id="patch_125">
    <path d="M 672.96771 91.329984 
L 677.033075 91.329984 
L 677.033075 137.937937 
L 672.96771 137.937937 
z
" clip-path="url(#p53b2c77d88)" style="fill: #ff7f0e; opacity: 0.8"/>
   </g>
   <g id="patch_126">
    <path d="M 678.049416 91.329984 
L 682.11478 91.329984 
L 682.11478 122.948194 
L 678.049416 122.948194 
z
" clip-path="url(#p53b2c77d88)" style="fill: #ff7f0e; opacity: 0.8"/>
   </g>
   <g id="patch_127">
    <path d="M 683.131121 91.329984 
L 687.196485 91.329984 
L 687.196485 123.394077 
L 683.131121 123.394077 
z
" clip-path="url(#p53b2c77d88)" style="fill: #ff7f0e; opacity: 0.8"/>
   </g>
   <g id="patch_128">
    <path d="M 688.212827 91.329984 
L 692.278191 91.329984 
L 692.278191 39.069726 
L 688.212827 39.069726 
z
" clip-path="url(#p53b2c77d88)" style="fill: #ff7f0e; opacity: 0.8"/>
   </g>
   <g id="patch_129">
    <path d="M 693.294532 91.329984 
L 697.359896 91.329984 
L 697.359896 52.000684 
L 693.294532 52.000684 
z
" clip-path="url(#p53b2c77d88)" style="fill: #ff7f0e; opacity: 0.8"/>
   </g>
   <g id="patch_130">
    <path d="M 698.376237 91.329984 
L 702.441602 91.329984 
L 702.441602 63.371555 
L 698.376237 63.371555 
z
" clip-path="url(#p53b2c77d88)" style="fill: #ff7f0e; opacity: 0.8"/>
   </g>
   <g id="matplotlib.axis_1">
    <g id="xtick_1">
     <g id="line2d_1">
      <defs>
       <path id="m8964287e1c" d="M 0 0 
L 0 3.5 
" style="stroke: #000000; stroke-width: 0.8"/>
      </defs>
      <g>
       <use xlink:href="#m8964287e1c" x="55.03233" y="169.517969" style="stroke: #000000; stroke-width: 0.8"/>
      </g>
     </g>
     <g id="text_1">
      <!-- 0 -->
      <g transform="translate(51.85108 184.116406) scale(0.1 -0.1)">
       <defs>
        <path id="DejaVuSans-30" d="M 2034 4250 
Q 1547 4250 1301 3770 
Q 1056 3291 1056 2328 
Q 1056 1369 1301 889 
Q 1547 409 2034 409 
Q 2525 409 2770 889 
Q 3016 1369 3016 2328 
Q 3016 3291 2770 3770 
Q 2525 4250 2034 4250 
z
M 2034 4750 
Q 2819 4750 3233 4129 
Q 3647 3509 3647 2328 
Q 3647 1150 3233 529 
Q 2819 -91 2034 -91 
Q 1250 -91 836 529 
Q 422 1150 422 2328 
Q 422 3509 836 4129 
Q 1250 4750 2034 4750 
z
" transform="scale(0.015625)"/>
       </defs>
       <use xlink:href="#DejaVuSans-30"/>
      </g>
     </g>
    </g>
    <g id="xtick_2">
     <g id="line2d_2">
      <g>
       <use xlink:href="#m8964287e1c" x="156.666439" y="169.517969" style="stroke: #000000; stroke-width: 0.8"/>
      </g>
     </g>
     <g id="text_2">
      <!-- 20 -->
      <g transform="translate(150.303939 184.116406) scale(0.1 -0.1)">
       <defs>
        <path id="DejaVuSans-32" d="M 1228 531 
L 3431 531 
L 3431 0 
L 469 0 
L 469 531 
Q 828 903 1448 1529 
Q 2069 2156 2228 2338 
Q 2531 2678 2651 2914 
Q 2772 3150 2772 3378 
Q 2772 3750 2511 3984 
Q 2250 4219 1831 4219 
Q 1534 4219 1204 4116 
Q 875 4013 500 3803 
L 500 4441 
Q 881 4594 1212 4672 
Q 1544 4750 1819 4750 
Q 2544 4750 2975 4387 
Q 3406 4025 3406 3419 
Q 3406 3131 3298 2873 
Q 3191 2616 2906 2266 
Q 2828 2175 2409 1742 
Q 1991 1309 1228 531 
z
" transform="scale(0.015625)"/>
       </defs>
       <use xlink:href="#DejaVuSans-32"/>
       <use xlink:href="#DejaVuSans-30" transform="translate(63.623047 0)"/>
      </g>
     </g>
    </g>
    <g id="xtick_3">
     <g id="line2d_3">
      <g>
       <use xlink:href="#m8964287e1c" x="258.300547" y="169.517969" style="stroke: #000000; stroke-width: 0.8"/>
      </g>
     </g>
     <g id="text_3">
      <!-- 40 -->
      <g transform="translate(251.938047 184.116406) scale(0.1 -0.1)">
       <defs>
        <path id="DejaVuSans-34" d="M 2419 4116 
L 825 1625 
L 2419 1625 
L 2419 4116 
z
M 2253 4666 
L 3047 4666 
L 3047 1625 
L 3713 1625 
L 3713 1100 
L 3047 1100 
L 3047 0 
L 2419 0 
L 2419 1100 
L 313 1100 
L 313 1709 
L 2253 4666 
z
" transform="scale(0.015625)"/>
       </defs>
       <use xlink:href="#DejaVuSans-34"/>
       <use xlink:href="#DejaVuSans-30" transform="translate(63.623047 0)"/>
      </g>
     </g>
    </g>
    <g id="xtick_4">
     <g id="line2d_4">
      <g>
       <use xlink:href="#m8964287e1c" x="359.934656" y="169.517969" style="stroke: #000000; stroke-width: 0.8"/>
      </g>
     </g>
     <g id="text_4">
      <!-- 60 -->
      <g transform="translate(353.572156 184.116406) scale(0.1 -0.1)">
       <defs>
        <path id="DejaVuSans-36" d="M 2113 2584 
Q 1688 2584 1439 2293 
Q 1191 2003 1191 1497 
Q 1191 994 1439 701 
Q 1688 409 2113 409 
Q 2538 409 2786 701 
Q 3034 994 3034 1497 
Q 3034 2003 2786 2293 
Q 2538 2584 2113 2584 
z
M 3366 4563 
L 3366 3988 
Q 3128 4100 2886 4159 
Q 2644 4219 2406 4219 
Q 1781 4219 1451 3797 
Q 1122 3375 1075 2522 
Q 1259 2794 1537 2939 
Q 1816 3084 2150 3084 
Q 2853 3084 3261 2657 
Q 3669 2231 3669 1497 
Q 3669 778 3244 343 
Q 2819 -91 2113 -91 
Q 1303 -91 875 529 
Q 447 1150 447 2328 
Q 447 3434 972 4092 
Q 1497 4750 2381 4750 
Q 2619 4750 2861 4703 
Q 3103 4656 3366 4563 
z
" transform="scale(0.015625)"/>
       </defs>
       <use xlink:href="#DejaVuSans-36"/>
       <use xlink:href="#DejaVuSans-30" transform="translate(63.623047 0)"/>
      </g>
     </g>
    </g>
    <g id="xtick_5">
     <g id="line2d_5">
      <g>
       <use xlink:href="#m8964287e1c" x="461.568765" y="169.517969" style="stroke: #000000; stroke-width: 0.8"/>
      </g>
     </g>
     <g id="text_5">
      <!-- 80 -->
      <g transform="translate(455.206265 184.116406) scale(0.1 -0.1)">
       <defs>
        <path id="DejaVuSans-38" d="M 2034 2216 
Q 1584 2216 1326 1975 
Q 1069 1734 1069 1313 
Q 1069 891 1326 650 
Q 1584 409 2034 409 
Q 2484 409 2743 651 
Q 3003 894 3003 1313 
Q 3003 1734 2745 1975 
Q 2488 2216 2034 2216 
z
M 1403 2484 
Q 997 2584 770 2862 
Q 544 3141 544 3541 
Q 544 4100 942 4425 
Q 1341 4750 2034 4750 
Q 2731 4750 3128 4425 
Q 3525 4100 3525 3541 
Q 3525 3141 3298 2862 
Q 3072 2584 2669 2484 
Q 3125 2378 3379 2068 
Q 3634 1759 3634 1313 
Q 3634 634 3220 271 
Q 2806 -91 2034 -91 
Q 1263 -91 848 271 
Q 434 634 434 1313 
Q 434 1759 690 2068 
Q 947 2378 1403 2484 
z
M 1172 3481 
Q 1172 3119 1398 2916 
Q 1625 2713 2034 2713 
Q 2441 2713 2670 2916 
Q 2900 3119 2900 3481 
Q 2900 3844 2670 4047 
Q 2441 4250 2034 4250 
Q 1625 4250 1398 4047 
Q 1172 3844 1172 3481 
z
" transform="scale(0.015625)"/>
       </defs>
       <use xlink:href="#DejaVuSans-38"/>
       <use xlink:href="#DejaVuSans-30" transform="translate(63.623047 0)"/>
      </g>
     </g>
    </g>
    <g id="xtick_6">
     <g id="line2d_6">
      <g>
       <use xlink:href="#m8964287e1c" x="563.202873" y="169.517969" style="stroke: #000000; stroke-width: 0.8"/>
      </g>
     </g>
     <g id="text_6">
      <!-- 100 -->
      <g transform="translate(553.659123 184.116406) scale(0.1 -0.1)">
       <defs>
        <path id="DejaVuSans-31" d="M 794 531 
L 1825 531 
L 1825 4091 
L 703 3866 
L 703 4441 
L 1819 4666 
L 2450 4666 
L 2450 531 
L 3481 531 
L 3481 0 
L 794 0 
L 794 531 
z
" transform="scale(0.015625)"/>
       </defs>
       <use xlink:href="#DejaVuSans-31"/>
       <use xlink:href="#DejaVuSans-30" transform="translate(63.623047 0)"/>
       <use xlink:href="#DejaVuSans-30" transform="translate(127.246094 0)"/>
      </g>
     </g>
    </g>
    <g id="xtick_7">
     <g id="line2d_7">
      <g>
       <use xlink:href="#m8964287e1c" x="664.836982" y="169.517969" style="stroke: #000000; stroke-width: 0.8"/>
      </g>
     </g>
     <g id="text_7">
      <!-- 120 -->
      <g transform="translate(655.293232 184.116406) scale(0.1 -0.1)">
       <use xlink:href="#DejaVuSans-31"/>
       <use xlink:href="#DejaVuSans-32" transform="translate(63.623047 0)"/>
       <use xlink:href="#DejaVuSans-30" transform="translate(127.246094 0)"/>
      </g>
     </g>
    </g>
    <g id="text_8">
     <!-- Latent unit index -->
     <g transform="translate(324.411016 198.554375) scale(0.11 -0.11)">
      <defs>
       <path id="DejaVuSans-Bold-4c" d="M 588 4666 
L 1791 4666 
L 1791 909 
L 3903 909 
L 3903 0 
L 588 0 
L 588 4666 
z
" transform="scale(0.015625)"/>
       <path id="DejaVuSans-Bold-61" d="M 2106 1575 
Q 1756 1575 1579 1456 
Q 1403 1338 1403 1106 
Q 1403 894 1545 773 
Q 1688 653 1941 653 
Q 2256 653 2472 879 
Q 2688 1106 2688 1447 
L 2688 1575 
L 2106 1575 
z
M 3816 1997 
L 3816 0 
L 2688 0 
L 2688 519 
Q 2463 200 2181 54 
Q 1900 -91 1497 -91 
Q 953 -91 614 226 
Q 275 544 275 1050 
Q 275 1666 698 1953 
Q 1122 2241 2028 2241 
L 2688 2241 
L 2688 2328 
Q 2688 2594 2478 2717 
Q 2269 2841 1825 2841 
Q 1466 2841 1156 2769 
Q 847 2697 581 2553 
L 581 3406 
Q 941 3494 1303 3539 
Q 1666 3584 2028 3584 
Q 2975 3584 3395 3211 
Q 3816 2838 3816 1997 
z
" transform="scale(0.015625)"/>
       <path id="DejaVuSans-Bold-74" d="M 1759 4494 
L 1759 3500 
L 2913 3500 
L 2913 2700 
L 1759 2700 
L 1759 1216 
Q 1759 972 1856 886 
Q 1953 800 2241 800 
L 2816 800 
L 2816 0 
L 1856 0 
Q 1194 0 917 276 
Q 641 553 641 1216 
L 641 2700 
L 84 2700 
L 84 3500 
L 641 3500 
L 641 4494 
L 1759 4494 
z
" transform="scale(0.015625)"/>
       <path id="DejaVuSans-Bold-65" d="M 4031 1759 
L 4031 1441 
L 1416 1441 
Q 1456 1047 1700 850 
Q 1944 653 2381 653 
Q 2734 653 3104 758 
Q 3475 863 3866 1075 
L 3866 213 
Q 3469 63 3072 -14 
Q 2675 -91 2278 -91 
Q 1328 -91 801 392 
Q 275 875 275 1747 
Q 275 2603 792 3093 
Q 1309 3584 2216 3584 
Q 3041 3584 3536 3087 
Q 4031 2591 4031 1759 
z
M 2881 2131 
Q 2881 2450 2695 2645 
Q 2509 2841 2209 2841 
Q 1884 2841 1681 2658 
Q 1478 2475 1428 2131 
L 2881 2131 
z
" transform="scale(0.015625)"/>
       <path id="DejaVuSans-Bold-6e" d="M 4056 2131 
L 4056 0 
L 2931 0 
L 2931 347 
L 2931 1631 
Q 2931 2084 2911 2256 
Q 2891 2428 2841 2509 
Q 2775 2619 2662 2680 
Q 2550 2741 2406 2741 
Q 2056 2741 1856 2470 
Q 1656 2200 1656 1722 
L 1656 0 
L 538 0 
L 538 3500 
L 1656 3500 
L 1656 2988 
Q 1909 3294 2193 3439 
Q 2478 3584 2822 3584 
Q 3428 3584 3742 3212 
Q 4056 2841 4056 2131 
z
" transform="scale(0.015625)"/>
       <path id="DejaVuSans-Bold-20" transform="scale(0.015625)"/>
       <path id="DejaVuSans-Bold-75" d="M 500 1363 
L 500 3500 
L 1625 3500 
L 1625 3150 
Q 1625 2866 1622 2436 
Q 1619 2006 1619 1863 
Q 1619 1441 1641 1255 
Q 1663 1069 1716 984 
Q 1784 875 1895 815 
Q 2006 756 2150 756 
Q 2500 756 2700 1025 
Q 2900 1294 2900 1772 
L 2900 3500 
L 4019 3500 
L 4019 0 
L 2900 0 
L 2900 506 
Q 2647 200 2364 54 
Q 2081 -91 1741 -91 
Q 1134 -91 817 281 
Q 500 653 500 1363 
z
" transform="scale(0.015625)"/>
       <path id="DejaVuSans-Bold-69" d="M 538 3500 
L 1656 3500 
L 1656 0 
L 538 0 
L 538 3500 
z
M 538 4863 
L 1656 4863 
L 1656 3950 
L 538 3950 
L 538 4863 
z
" transform="scale(0.015625)"/>
       <path id="DejaVuSans-Bold-64" d="M 2919 2988 
L 2919 4863 
L 4044 4863 
L 4044 0 
L 2919 0 
L 2919 506 
Q 2688 197 2409 53 
Q 2131 -91 1766 -91 
Q 1119 -91 703 423 
Q 288 938 288 1747 
Q 288 2556 703 3070 
Q 1119 3584 1766 3584 
Q 2128 3584 2408 3439 
Q 2688 3294 2919 2988 
z
M 2181 722 
Q 2541 722 2730 984 
Q 2919 1247 2919 1747 
Q 2919 2247 2730 2509 
Q 2541 2772 2181 2772 
Q 1825 2772 1636 2509 
Q 1447 2247 1447 1747 
Q 1447 1247 1636 984 
Q 1825 722 2181 722 
z
" transform="scale(0.015625)"/>
       <path id="DejaVuSans-Bold-78" d="M 1422 1791 
L 159 3500 
L 1344 3500 
L 2059 2463 
L 2784 3500 
L 3969 3500 
L 2706 1797 
L 4031 0 
L 2847 0 
L 2059 1106 
L 1281 0 
L 97 0 
L 1422 1791 
z
" transform="scale(0.015625)"/>
      </defs>
      <use xlink:href="#DejaVuSans-Bold-4c"/>
      <use xlink:href="#DejaVuSans-Bold-61" transform="translate(63.720703 0)"/>
      <use xlink:href="#DejaVuSans-Bold-74" transform="translate(131.201172 0)"/>
      <use xlink:href="#DejaVuSans-Bold-65" transform="translate(179.003906 0)"/>
      <use xlink:href="#DejaVuSans-Bold-6e" transform="translate(246.826172 0)"/>
      <use xlink:href="#DejaVuSans-Bold-74" transform="translate(318.017578 0)"/>
      <use xlink:href="#DejaVuSans-Bold-20" transform="translate(365.820312 0)"/>
      <use xlink:href="#DejaVuSans-Bold-75" transform="translate(400.634766 0)"/>
      <use xlink:href="#DejaVuSans-Bold-6e" transform="translate(471.826172 0)"/>
      <use xlink:href="#DejaVuSans-Bold-69" transform="translate(543.017578 0)"/>
      <use xlink:href="#DejaVuSans-Bold-74" transform="translate(577.294922 0)"/>
      <use xlink:href="#DejaVuSans-Bold-20" transform="translate(625.097656 0)"/>
      <use xlink:href="#DejaVuSans-Bold-69" transform="translate(659.912109 0)"/>
      <use xlink:href="#DejaVuSans-Bold-6e" transform="translate(694.189453 0)"/>
      <use xlink:href="#DejaVuSans-Bold-64" transform="translate(765.380859 0)"/>
      <use xlink:href="#DejaVuSans-Bold-65" transform="translate(836.962891 0)"/>
      <use xlink:href="#DejaVuSans-Bold-78" transform="translate(904.785156 0)"/>
     </g>
    </g>
   </g>
   <g id="matplotlib.axis_2">
    <g id="ytick_1">
     <g id="line2d_8">
      <path d="M 49.950625 151.618417 
L 705.490625 151.618417 
" clip-path="url(#p53b2c77d88)" style="fill: none; stroke-dasharray: 2.96,1.28; stroke-dashoffset: 0; stroke: #b0b0b0; stroke-opacity: 0.3; stroke-width: 0.8"/>
     </g>
     <g id="line2d_9">
      <defs>
       <path id="mf65699e4bf" d="M 0 0 
L -3.5 0 
" style="stroke: #000000; stroke-width: 0.8"/>
      </defs>
      <g>
       <use xlink:href="#mf65699e4bf" x="49.950625" y="151.618417" style="stroke: #000000; stroke-width: 0.8"/>
      </g>
     </g>
     <g id="text_9">
      <!-- −10 -->
      <g transform="translate(21.845938 155.417636) scale(0.1 -0.1)">
       <defs>
        <path id="DejaVuSans-2212" d="M 678 2272 
L 4684 2272 
L 4684 1741 
L 678 1741 
L 678 2272 
z
" transform="scale(0.015625)"/>
       </defs>
       <use xlink:href="#DejaVuSans-2212"/>
       <use xlink:href="#DejaVuSans-31" transform="translate(83.789062 0)"/>
       <use xlink:href="#DejaVuSans-30" transform="translate(147.412109 0)"/>
      </g>
     </g>
    </g>
    <g id="ytick_2">
     <g id="line2d_10">
      <path d="M 49.950625 121.474201 
L 705.490625 121.474201 
" clip-path="url(#p53b2c77d88)" style="fill: none; stroke-dasharray: 2.96,1.28; stroke-dashoffset: 0; stroke: #b0b0b0; stroke-opacity: 0.3; stroke-width: 0.8"/>
     </g>
     <g id="line2d_11">
      <g>
       <use xlink:href="#mf65699e4bf" x="49.950625" y="121.474201" style="stroke: #000000; stroke-width: 0.8"/>
      </g>
     </g>
     <g id="text_10">
      <!-- −5 -->
      <g transform="translate(28.208438 125.273419) scale(0.1 -0.1)">
       <defs>
        <path id="DejaVuSans-35" d="M 691 4666 
L 3169 4666 
L 3169 4134 
L 1269 4134 
L 1269 2991 
Q 1406 3038 1543 3061 
Q 1681 3084 1819 3084 
Q 2600 3084 3056 2656 
Q 3513 2228 3513 1497 
Q 3513 744 3044 326 
Q 2575 -91 1722 -91 
Q 1428 -91 1123 -41 
Q 819 9 494 109 
L 494 744 
Q 775 591 1075 516 
Q 1375 441 1709 441 
Q 2250 441 2565 725 
Q 2881 1009 2881 1497 
Q 2881 1984 2565 2268 
Q 2250 2553 1709 2553 
Q 1456 2553 1204 2497 
Q 953 2441 691 2322 
L 691 4666 
z
" transform="scale(0.015625)"/>
       </defs>
       <use xlink:href="#DejaVuSans-2212"/>
       <use xlink:href="#DejaVuSans-35" transform="translate(83.789062 0)"/>
      </g>
     </g>
    </g>
    <g id="ytick_3">
     <g id="line2d_12">
      <path d="M 49.950625 91.329984 
L 705.490625 91.329984 
" clip-path="url(#p53b2c77d88)" style="fill: none; stroke-dasharray: 2.96,1.28; stroke-dashoffset: 0; stroke: #b0b0b0; stroke-opacity: 0.3; stroke-width: 0.8"/>
     </g>
     <g id="line2d_13">
      <g>
       <use xlink:href="#mf65699e4bf" x="49.950625" y="91.329984" style="stroke: #000000; stroke-width: 0.8"/>
      </g>
     </g>
     <g id="text_11">
      <!-- 0 -->
      <g transform="translate(36.588125 95.129203) scale(0.1 -0.1)">
       <use xlink:href="#DejaVuSans-30"/>
      </g>
     </g>
    </g>
    <g id="ytick_4">
     <g id="line2d_14">
      <path d="M 49.950625 61.185767 
L 705.490625 61.185767 
" clip-path="url(#p53b2c77d88)" style="fill: none; stroke-dasharray: 2.96,1.28; stroke-dashoffset: 0; stroke: #b0b0b0; stroke-opacity: 0.3; stroke-width: 0.8"/>
     </g>
     <g id="line2d_15">
      <g>
       <use xlink:href="#mf65699e4bf" x="49.950625" y="61.185767" style="stroke: #000000; stroke-width: 0.8"/>
      </g>
     </g>
     <g id="text_12">
      <!-- 5 -->
      <g transform="translate(36.588125 64.984986) scale(0.1 -0.1)">
       <use xlink:href="#DejaVuSans-35"/>
      </g>
     </g>
    </g>
    <g id="ytick_5">
     <g id="line2d_16">
      <path d="M 49.950625 31.041551 
L 705.490625 31.041551 
" clip-path="url(#p53b2c77d88)" style="fill: none; stroke-dasharray: 2.96,1.28; stroke-dashoffset: 0; stroke: #b0b0b0; stroke-opacity: 0.3; stroke-width: 0.8"/>
     </g>
     <g id="line2d_17">
      <g>
       <use xlink:href="#mf65699e4bf" x="49.950625" y="31.041551" style="stroke: #000000; stroke-width: 0.8"/>
      </g>
     </g>
     <g id="text_13">
      <!-- 10 -->
      <g transform="translate(30.225625 34.84077) scale(0.1 -0.1)">
       <use xlink:href="#DejaVuSans-31"/>
       <use xlink:href="#DejaVuSans-30" transform="translate(63.623047 0)"/>
      </g>
     </g>
    </g>
    <g id="text_14">
     <!-- Activation -->
     <g transform="translate(15.558281 127.834453) rotate(-90) scale(0.11 -0.11)">
      <defs>
       <path id="DejaVuSans-Bold-41" d="M 3419 850 
L 1538 850 
L 1241 0 
L 31 0 
L 1759 4666 
L 3194 4666 
L 4922 0 
L 3713 0 
L 3419 850 
z
M 1838 1716 
L 3116 1716 
L 2478 3572 
L 1838 1716 
z
" transform="scale(0.015625)"/>
       <path id="DejaVuSans-Bold-63" d="M 3366 3391 
L 3366 2478 
Q 3138 2634 2908 2709 
Q 2678 2784 2431 2784 
Q 1963 2784 1702 2511 
Q 1441 2238 1441 1747 
Q 1441 1256 1702 982 
Q 1963 709 2431 709 
Q 2694 709 2930 787 
Q 3166 866 3366 1019 
L 3366 103 
Q 3103 6 2833 -42 
Q 2563 -91 2291 -91 
Q 1344 -91 809 395 
Q 275 881 275 1747 
Q 275 2613 809 3098 
Q 1344 3584 2291 3584 
Q 2566 3584 2833 3536 
Q 3100 3488 3366 3391 
z
" transform="scale(0.015625)"/>
       <path id="DejaVuSans-Bold-76" d="M 97 3500 
L 1216 3500 
L 2088 1081 
L 2956 3500 
L 4078 3500 
L 2700 0 
L 1472 0 
L 97 3500 
z
" transform="scale(0.015625)"/>
       <path id="DejaVuSans-Bold-6f" d="M 2203 2784 
Q 1831 2784 1636 2517 
Q 1441 2250 1441 1747 
Q 1441 1244 1636 976 
Q 1831 709 2203 709 
Q 2569 709 2762 976 
Q 2956 1244 2956 1747 
Q 2956 2250 2762 2517 
Q 2569 2784 2203 2784 
z
M 2203 3584 
Q 3106 3584 3614 3096 
Q 4122 2609 4122 1747 
Q 4122 884 3614 396 
Q 3106 -91 2203 -91 
Q 1297 -91 786 396 
Q 275 884 275 1747 
Q 275 2609 786 3096 
Q 1297 3584 2203 3584 
z
" transform="scale(0.015625)"/>
      </defs>
      <use xlink:href="#DejaVuSans-Bold-41"/>
      <use xlink:href="#DejaVuSans-Bold-63" transform="translate(77.392578 0)"/>
      <use xlink:href="#DejaVuSans-Bold-74" transform="translate(136.669922 0)"/>
      <use xlink:href="#DejaVuSans-Bold-69" transform="translate(184.472656 0)"/>
      <use xlink:href="#DejaVuSans-Bold-76" transform="translate(218.75 0)"/>
      <use xlink:href="#DejaVuSans-Bold-61" transform="translate(283.935547 0)"/>
      <use xlink:href="#DejaVuSans-Bold-74" transform="translate(351.416016 0)"/>
      <use xlink:href="#DejaVuSans-Bold-69" transform="translate(399.21875 0)"/>
      <use xlink:href="#DejaVuSans-Bold-6f" transform="translate(433.496094 0)"/>
      <use xlink:href="#DejaVuSans-Bold-6e" transform="translate(502.197266 0)"/>
     </g>
    </g>
   </g>
   <g id="patch_131">
    <path d="M 49.950625 169.517969 
L 49.950625 23.077969 
" style="fill: none; stroke: #000000; stroke-width: 0.8; stroke-linejoin: miter; stroke-linecap: square"/>
   </g>
   <g id="patch_132">
    <path d="M 705.490625 169.517969 
L 705.490625 23.077969 
" style="fill: none; stroke: #000000; stroke-width: 0.8; stroke-linejoin: miter; stroke-linecap: square"/>
   </g>
   <g id="patch_133">
    <path d="M 49.950625 169.517969 
L 705.490625 169.517969 
" style="fill: none; stroke: #000000; stroke-width: 0.8; stroke-linejoin: miter; stroke-linecap: square"/>
   </g>
   <g id="patch_134">
    <path d="M 49.950625 23.077969 
L 705.490625 23.077969 
" style="fill: none; stroke: #000000; stroke-width: 0.8; stroke-linejoin: miter; stroke-linecap: square"/>
   </g>
   <g id="text_15">
    <!-- Latent representation of one embryo frame (128-D) -->
    <g transform="translate(187.917578 17.077969) scale(0.13 -0.13)">
     <defs>
      <path id="DejaVuSans-Bold-72" d="M 3138 2547 
Q 2991 2616 2845 2648 
Q 2700 2681 2553 2681 
Q 2122 2681 1889 2404 
Q 1656 2128 1656 1613 
L 1656 0 
L 538 0 
L 538 3500 
L 1656 3500 
L 1656 2925 
Q 1872 3269 2151 3426 
Q 2431 3584 2822 3584 
Q 2878 3584 2943 3579 
Q 3009 3575 3134 3559 
L 3138 2547 
z
" transform="scale(0.015625)"/>
      <path id="DejaVuSans-Bold-70" d="M 1656 506 
L 1656 -1331 
L 538 -1331 
L 538 3500 
L 1656 3500 
L 1656 2988 
Q 1888 3294 2169 3439 
Q 2450 3584 2816 3584 
Q 3463 3584 3878 3070 
Q 4294 2556 4294 1747 
Q 4294 938 3878 423 
Q 3463 -91 2816 -91 
Q 2450 -91 2169 54 
Q 1888 200 1656 506 
z
M 2400 2772 
Q 2041 2772 1848 2508 
Q 1656 2244 1656 1747 
Q 1656 1250 1848 986 
Q 2041 722 2400 722 
Q 2759 722 2948 984 
Q 3138 1247 3138 1747 
Q 3138 2247 2948 2509 
Q 2759 2772 2400 2772 
z
" transform="scale(0.015625)"/>
      <path id="DejaVuSans-Bold-73" d="M 3272 3391 
L 3272 2541 
Q 2913 2691 2578 2766 
Q 2244 2841 1947 2841 
Q 1628 2841 1473 2761 
Q 1319 2681 1319 2516 
Q 1319 2381 1436 2309 
Q 1553 2238 1856 2203 
L 2053 2175 
Q 2913 2066 3209 1816 
Q 3506 1566 3506 1031 
Q 3506 472 3093 190 
Q 2681 -91 1863 -91 
Q 1516 -91 1145 -36 
Q 775 19 384 128 
L 384 978 
Q 719 816 1070 734 
Q 1422 653 1784 653 
Q 2113 653 2278 743 
Q 2444 834 2444 1013 
Q 2444 1163 2330 1236 
Q 2216 1309 1875 1350 
L 1678 1375 
Q 931 1469 631 1722 
Q 331 1975 331 2491 
Q 331 3047 712 3315 
Q 1094 3584 1881 3584 
Q 2191 3584 2531 3537 
Q 2872 3491 3272 3391 
z
" transform="scale(0.015625)"/>
      <path id="DejaVuSans-Bold-66" d="M 2841 4863 
L 2841 4128 
L 2222 4128 
Q 1984 4128 1890 4042 
Q 1797 3956 1797 3744 
L 1797 3500 
L 2753 3500 
L 2753 2700 
L 1797 2700 
L 1797 0 
L 678 0 
L 678 2700 
L 122 2700 
L 122 3500 
L 678 3500 
L 678 3744 
Q 678 4316 997 4589 
Q 1316 4863 1984 4863 
L 2841 4863 
z
" transform="scale(0.015625)"/>
      <path id="DejaVuSans-Bold-6d" d="M 3781 2919 
Q 3994 3244 4286 3414 
Q 4578 3584 4928 3584 
Q 5531 3584 5847 3212 
Q 6163 2841 6163 2131 
L 6163 0 
L 5038 0 
L 5038 1825 
Q 5041 1866 5042 1909 
Q 5044 1953 5044 2034 
Q 5044 2406 4934 2573 
Q 4825 2741 4581 2741 
Q 4263 2741 4089 2478 
Q 3916 2216 3909 1719 
L 3909 0 
L 2784 0 
L 2784 1825 
Q 2784 2406 2684 2573 
Q 2584 2741 2328 2741 
Q 2006 2741 1831 2477 
Q 1656 2213 1656 1722 
L 1656 0 
L 531 0 
L 531 3500 
L 1656 3500 
L 1656 2988 
Q 1863 3284 2130 3434 
Q 2397 3584 2719 3584 
Q 3081 3584 3359 3409 
Q 3638 3234 3781 2919 
z
" transform="scale(0.015625)"/>
      <path id="DejaVuSans-Bold-62" d="M 2400 722 
Q 2759 722 2948 984 
Q 3138 1247 3138 1747 
Q 3138 2247 2948 2509 
Q 2759 2772 2400 2772 
Q 2041 2772 1848 2508 
Q 1656 2244 1656 1747 
Q 1656 1250 1848 986 
Q 2041 722 2400 722 
z
M 1656 2988 
Q 1888 3294 2169 3439 
Q 2450 3584 2816 3584 
Q 3463 3584 3878 3070 
Q 4294 2556 4294 1747 
Q 4294 938 3878 423 
Q 3463 -91 2816 -91 
Q 2450 -91 2169 54 
Q 1888 200 1656 506 
L 1656 0 
L 538 0 
L 538 4863 
L 1656 4863 
L 1656 2988 
z
" transform="scale(0.015625)"/>
      <path id="DejaVuSans-Bold-79" d="M 78 3500 
L 1197 3500 
L 2138 1125 
L 2938 3500 
L 4056 3500 
L 2584 -331 
Q 2363 -916 2067 -1148 
Q 1772 -1381 1288 -1381 
L 641 -1381 
L 641 -647 
L 991 -647 
Q 1275 -647 1404 -556 
Q 1534 -466 1606 -231 
L 1638 -134 
L 78 3500 
z
" transform="scale(0.015625)"/>
      <path id="DejaVuSans-Bold-28" d="M 2413 -844 
L 1484 -844 
Q 1006 -72 778 623 
Q 550 1319 550 2003 
Q 550 2688 779 3389 
Q 1009 4091 1484 4856 
L 2413 4856 
Q 2013 4116 1813 3408 
Q 1613 2700 1613 2009 
Q 1613 1319 1811 609 
Q 2009 -100 2413 -844 
z
" transform="scale(0.015625)"/>
      <path id="DejaVuSans-Bold-31" d="M 750 831 
L 1813 831 
L 1813 3847 
L 722 3622 
L 722 4441 
L 1806 4666 
L 2950 4666 
L 2950 831 
L 4013 831 
L 4013 0 
L 750 0 
L 750 831 
z
" transform="scale(0.015625)"/>
      <path id="DejaVuSans-Bold-32" d="M 1844 884 
L 3897 884 
L 3897 0 
L 506 0 
L 506 884 
L 2209 2388 
Q 2438 2594 2547 2791 
Q 2656 2988 2656 3200 
Q 2656 3528 2436 3728 
Q 2216 3928 1850 3928 
Q 1569 3928 1234 3808 
Q 900 3688 519 3450 
L 519 4475 
Q 925 4609 1322 4679 
Q 1719 4750 2100 4750 
Q 2938 4750 3402 4381 
Q 3866 4013 3866 3353 
Q 3866 2972 3669 2642 
Q 3472 2313 2841 1759 
L 1844 884 
z
" transform="scale(0.015625)"/>
      <path id="DejaVuSans-Bold-38" d="M 2228 2088 
Q 1891 2088 1709 1903 
Q 1528 1719 1528 1375 
Q 1528 1031 1709 848 
Q 1891 666 2228 666 
Q 2563 666 2741 848 
Q 2919 1031 2919 1375 
Q 2919 1722 2741 1905 
Q 2563 2088 2228 2088 
z
M 1350 2484 
Q 925 2613 709 2878 
Q 494 3144 494 3541 
Q 494 4131 934 4440 
Q 1375 4750 2228 4750 
Q 3075 4750 3515 4442 
Q 3956 4134 3956 3541 
Q 3956 3144 3739 2878 
Q 3522 2613 3097 2484 
Q 3572 2353 3814 2058 
Q 4056 1763 4056 1313 
Q 4056 619 3595 264 
Q 3134 -91 2228 -91 
Q 1319 -91 855 264 
Q 391 619 391 1313 
Q 391 1763 633 2058 
Q 875 2353 1350 2484 
z
M 1631 3419 
Q 1631 3141 1786 2991 
Q 1941 2841 2228 2841 
Q 2509 2841 2662 2991 
Q 2816 3141 2816 3419 
Q 2816 3697 2662 3845 
Q 2509 3994 2228 3994 
Q 1941 3994 1786 3844 
Q 1631 3694 1631 3419 
z
" transform="scale(0.015625)"/>
      <path id="DejaVuSans-Bold-2d" d="M 347 2297 
L 2309 2297 
L 2309 1388 
L 347 1388 
L 347 2297 
z
" transform="scale(0.015625)"/>
      <path id="DejaVuSans-Bold-44" d="M 1791 3756 
L 1791 909 
L 2222 909 
Q 2959 909 3348 1275 
Q 3738 1641 3738 2338 
Q 3738 3031 3350 3393 
Q 2963 3756 2222 3756 
L 1791 3756 
z
M 588 4666 
L 1856 4666 
Q 2919 4666 3439 4514 
Q 3959 4363 4331 4000 
Q 4659 3684 4818 3271 
Q 4978 2859 4978 2338 
Q 4978 1809 4818 1395 
Q 4659 981 4331 666 
Q 3956 303 3431 151 
Q 2906 0 1856 0 
L 588 0 
L 588 4666 
z
" transform="scale(0.015625)"/>
      <path id="DejaVuSans-Bold-29" d="M 513 -844 
Q 913 -100 1113 609 
Q 1313 1319 1313 2009 
Q 1313 2700 1113 3408 
Q 913 4116 513 4856 
L 1441 4856 
Q 1916 4091 2145 3389 
Q 2375 2688 2375 2003 
Q 2375 1319 2147 623 
Q 1919 -72 1441 -844 
L 513 -844 
z
" transform="scale(0.015625)"/>
     </defs>
     <use xlink:href="#DejaVuSans-Bold-4c"/>
     <use xlink:href="#DejaVuSans-Bold-61" transform="translate(63.720703 0)"/>
     <use xlink:href="#DejaVuSans-Bold-74" transform="translate(131.201172 0)"/>
     <use xlink:href="#DejaVuSans-Bold-65" transform="translate(179.003906 0)"/>
     <use xlink:href="#DejaVuSans-Bold-6e" transform="translate(246.826172 0)"/>
     <use xlink:href="#DejaVuSans-Bold-74" transform="translate(318.017578 0)"/>
     <use xlink:href="#DejaVuSans-Bold-20" transform="translate(365.820312 0)"/>
     <use xlink:href="#DejaVuSans-Bold-72" transform="translate(400.634766 0)"/>
     <use xlink:href="#DejaVuSans-Bold-65" transform="translate(449.951172 0)"/>
     <use xlink:href="#DejaVuSans-Bold-70" transform="translate(517.773438 0)"/>
     <use xlink:href="#DejaVuSans-Bold-72" transform="translate(589.355469 0)"/>
     <use xlink:href="#DejaVuSans-Bold-65" transform="translate(638.671875 0)"/>
     <use xlink:href="#DejaVuSans-Bold-73" transform="translate(706.494141 0)"/>
     <use xlink:href="#DejaVuSans-Bold-65" transform="translate(766.015625 0)"/>
     <use xlink:href="#DejaVuSans-Bold-6e" transform="translate(833.837891 0)"/>
     <use xlink:href="#DejaVuSans-Bold-74" transform="translate(905.029297 0)"/>
     <use xlink:href="#DejaVuSans-Bold-61" transform="translate(952.832031 0)"/>
     <use xlink:href="#DejaVuSans-Bold-74" transform="translate(1020.3125 0)"/>
     <use xlink:href="#DejaVuSans-Bold-69" transform="translate(1068.115234 0)"/>
     <use xlink:href="#DejaVuSans-Bold-6f" transform="translate(1102.392578 0)"/>
     <use xlink:href="#DejaVuSans-Bold-6e" transform="translate(1171.09375 0)"/>
     <use xlink:href="#DejaVuSans-Bold-20" transform="translate(1242.285156 0)"/>
     <use xlink:href="#DejaVuSans-Bold-6f" transform="translate(1277.099609 0)"/>
     <use xlink:href="#DejaVuSans-Bold-66" transform="translate(1345.800781 0)"/>
     <use xlink:href="#DejaVuSans-Bold-20" transform="translate(1389.306641 0)"/>
     <use xlink:href="#DejaVuSans-Bold-6f" transform="translate(1424.121094 0)"/>
     <use xlink:href="#DejaVuSans-Bold-6e" transform="translate(1492.822266 0)"/>
     <use xlink:href="#DejaVuSans-Bold-65" transform="translate(1564.013672 0)"/>
     <use xlink:href="#DejaVuSans-Bold-20" transform="translate(1631.835938 0)"/>
     <use xlink:href="#DejaVuSans-Bold-65" transform="translate(1666.650391 0)"/>
     <use xlink:href="#DejaVuSans-Bold-6d" transform="translate(1734.472656 0)"/>
     <use xlink:href="#DejaVuSans-Bold-62" transform="translate(1838.671875 0)"/>
     <use xlink:href="#DejaVuSans-Bold-72" transform="translate(1910.253906 0)"/>
     <use xlink:href="#DejaVuSans-Bold-79" transform="translate(1959.570312 0)"/>
     <use xlink:href="#DejaVuSans-Bold-6f" transform="translate(2024.755859 0)"/>
     <use xlink:href="#DejaVuSans-Bold-20" transform="translate(2093.457031 0)"/>
     <use xlink:href="#DejaVuSans-Bold-66" transform="translate(2128.271484 0)"/>
     <use xlink:href="#DejaVuSans-Bold-72" transform="translate(2171.777344 0)"/>
     <use xlink:href="#DejaVuSans-Bold-61" transform="translate(2221.09375 0)"/>
     <use xlink:href="#DejaVuSans-Bold-6d" transform="translate(2288.574219 0)"/>
     <use xlink:href="#DejaVuSans-Bold-65" transform="translate(2392.773438 0)"/>
     <use xlink:href="#DejaVuSans-Bold-20" transform="translate(2460.595703 0)"/>
     <use xlink:href="#DejaVuSans-Bold-28" transform="translate(2495.410156 0)"/>
     <use xlink:href="#DejaVuSans-Bold-31" transform="translate(2541.113281 0)"/>
     <use xlink:href="#DejaVuSans-Bold-32" transform="translate(2610.693359 0)"/>
     <use xlink:href="#DejaVuSans-Bold-38" transform="translate(2680.273438 0)"/>
     <use xlink:href="#DejaVuSans-Bold-2d" transform="translate(2749.853516 0)"/>
     <use xlink:href="#DejaVuSans-Bold-44" transform="translate(2791.357422 0)"/>
     <use xlink:href="#DejaVuSans-Bold-29" transform="translate(2874.365234 0)"/>
    </g>
   </g>
  </g>
 </g>
 <defs>
  <clipPath id="p53b2c77d88">
   <rect x="49.950625" y="23.077969" width="655.54" height="146.44"/>
  </clipPath>
 </defs>
</svg>
