<?xml version="1.0" encoding="utf-8" standalone="no"?>
<!DOCTYPE svg PUBLIC "-//W3C//DTD SVG 1.1//EN"
  "http://www.w3.org/Graphics/SVG/1.1/DTD/svg11.dtd">
<svg xmlns:xlink="http://www.w3.org/1999/xlink" width="432pt" height="360pt" viewBox="0 0 432 360" xmlns="http://www.w3.org/2000/svg" version="1.1">
 <metadata>
  <rdf:RDF xmlns:dc="http://purl.org/dc/elements/1.1/" xmlns:cc="http://creativecommons.org/ns#" xmlns:rdf="http://www.w3.org/1999/02/22-rdf-syntax-ns#">
   <cc:Work>
    <dc:type rdf:resource="http://purl.org/dc/dcmitype/StillImage"/>
    <dc:date>2025-12-15T01:25:08.001905</dc:date>
    <dc:format>image/svg+xml</dc:format>
    <dc:creator>
     <cc:Agent>
      <dc:title>Matplotlib v3.9.2, https://matplotlib.org/</dc:title>
     </cc:Agent>
    </dc:creator>
   </cc:Work>
  </rdf:RDF>
 </metadata>
 <defs>
  <style type="text/css">*{stroke-linejoin: round; stroke-linecap: butt}</style>
 </defs>
 <g id="figure_1">
  <g id="patch_1">
   <path d="M 0 360 
L 432 360 
L 432 0 
L 0 0 
z
" style="fill: #ffffff"/>
  </g>
  <g id="axes_1">
   <g id="patch_2">
    <path d="M 47.912107 318.76 
L 421.2 318.76 
L 421.2 10.8 
L 47.912107 10.8 
z
" style="fill: #ffffff"/>
   </g>
   <g id="PolyCollection_1">
    <path d="M 64.879738 279.584782 
L 64.879738 304.761818 
L 76.581553 287.543798 
L 88.283368 277.231822 
L 99.985183 257.359018 
L 111.686998 235.305159 
L 123.388813 210.988646 
L 135.090627 194.513809 
L 146.792442 177.604491 
L 158.494257 166.083546 
L 170.196072 157.469381 
L 181.897887 145.351724 
L 193.599702 142.448309 
L 205.301516 137.618771 
L 217.003331 134.721125 
L 228.705146 133.369735 
L 240.406961 128.752983 
L 252.108776 130.718298 
L 263.810591 126.848148 
L 275.512405 122.752537 
L 287.21422 125.664394 
L 298.916035 126.048595 
L 310.61785 122.999735 
L 322.319665 123.031748 
L 334.02148 122.107198 
L 345.723294 122.891923 
L 357.425109 121.732393 
L 369.126924 119.870742 
L 380.828739 120.201741 
L 392.530554 119.871685 
L 404.232368 118.591381 
L 404.232368 89.208141 
L 404.232368 89.208141 
L 392.530554 89.165253 
L 380.828739 89.733478 
L 369.126924 89.453939 
L 357.425109 90.464904 
L 345.723294 91.458064 
L 334.02148 90.650528 
L 322.319665 91.414299 
L 310.61785 91.499252 
L 298.916035 93.582979 
L 287.21422 93.733427 
L 275.512405 92.30249 
L 263.810591 94.811326 
L 252.108776 97.859881 
L 240.406961 96.573217 
L 228.705146 100.500851 
L 217.003331 101.787567 
L 205.301516 103.959641 
L 193.599702 108.180522 
L 181.897887 111.191942 
L 170.196072 119.928999 
L 158.494257 127.141393 
L 146.792442 139.182691 
L 135.090627 153.944233 
L 123.388813 169.86518 
L 111.686998 198.590384 
L 99.985183 221.685164 
L 88.283368 242.515075 
L 76.581553 259.076755 
L 64.879738 279.584782 
z
" clip-path="url(#p5e2f79938a)" style="fill: #e64b35; fill-opacity: 0.2"/>
   </g>
   <g id="PolyCollection_2">
    <path d="M 64.879738 278.193091 
L 64.879738 284.024501 
L 76.581553 263.47413 
L 88.283368 239.929582 
L 99.985183 219.037256 
L 111.686998 187.548159 
L 123.388813 154.418073 
L 135.090627 129.251028 
L 146.792442 112.321852 
L 158.494257 96.906204 
L 170.196072 93.894387 
L 181.897887 79.007977 
L 193.599702 74.499839 
L 205.301516 65.031983 
L 217.003331 64.443957 
L 228.705146 62.16883 
L 240.406961 56.720622 
L 252.108776 60.69835 
L 263.810591 56.433729 
L 275.512405 54.385905 
L 287.21422 52.34063 
L 298.916035 58.139124 
L 310.61785 46.201436 
L 322.319665 51.379674 
L 334.02148 59.054453 
L 345.723294 47.99133 
L 357.425109 49.113177 
L 369.126924 45.926019 
L 380.828739 46.171378 
L 392.530554 41.957544 
L 404.232368 40.780643 
L 404.232368 25.874445 
L 404.232368 25.874445 
L 392.530554 29.045939 
L 380.828739 29.11407 
L 369.126924 27.465661 
L 357.425109 24.798182 
L 345.723294 32.670576 
L 334.02148 27.602611 
L 322.319665 32.374111 
L 310.61785 31.380308 
L 298.916035 31.823322 
L 287.21422 30.315471 
L 275.512405 26.725856 
L 263.810591 29.895518 
L 252.108776 30.358542 
L 240.406961 30.54375 
L 228.705146 35.788979 
L 217.003331 36.795979 
L 205.301516 43.402185 
L 193.599702 48.516676 
L 181.897887 55.233538 
L 170.196072 66.906111 
L 158.494257 76.693398 
L 146.792442 90.454538 
L 135.090627 115.103248 
L 123.388813 133.925768 
L 111.686998 163.09453 
L 99.985183 198.031537 
L 88.283368 226.81254 
L 76.581553 251.039604 
L 64.879738 278.193091 
z
" clip-path="url(#p5e2f79938a)" style="fill: #4dbbd5; fill-opacity: 0.2"/>
   </g>
   <g id="PolyCollection_3">
    <path d="M 64.879738 284.451656 
L 64.879738 292.724467 
L 76.581553 260.097258 
L 88.283368 258.535121 
L 99.985183 238.749645 
L 111.686998 215.854549 
L 123.388813 173.391901 
L 135.090627 152.258247 
L 146.792442 131.718453 
L 158.494257 121.908035 
L 170.196072 109.287888 
L 181.897887 95.844225 
L 193.599702 90.402267 
L 205.301516 85.385881 
L 217.003331 82.762483 
L 228.705146 80.628818 
L 240.406961 77.44181 
L 252.108776 79.674139 
L 263.810591 75.175377 
L 275.512405 71.589091 
L 287.21422 72.299655 
L 298.916035 69.003506 
L 310.61785 73.214665 
L 322.319665 68.22989 
L 334.02148 69.613631 
L 345.723294 64.213515 
L 357.425109 60.675197 
L 369.126924 57.542645 
L 380.828739 59.076969 
L 392.530554 57.771214 
L 404.232368 61.080793 
L 404.232368 33.7558 
L 404.232368 33.7558 
L 392.530554 31.317544 
L 380.828739 34.330828 
L 369.126924 31.538081 
L 357.425109 36.592353 
L 345.723294 44.116677 
L 334.02148 44.709854 
L 322.319665 47.961065 
L 310.61785 54.116577 
L 298.916035 47.332401 
L 287.21422 53.601618 
L 275.512405 53.437575 
L 263.810591 55.432546 
L 252.108776 63.137768 
L 240.406961 59.554108 
L 228.705146 62.020376 
L 217.003331 61.265313 
L 205.301516 67.365716 
L 193.599702 69.26398 
L 181.897887 74.446117 
L 170.196072 89.738938 
L 158.494257 106.719839 
L 146.792442 118.381789 
L 135.090627 146.146995 
L 123.388813 170.197444 
L 111.686998 203.329176 
L 99.985183 229.562134 
L 88.283368 254.793066 
L 76.581553 251.898684 
L 64.879738 284.451656 
z
" clip-path="url(#p5e2f79938a)" style="fill: #00a087; fill-opacity: 0.2"/>
   </g>
   <g id="matplotlib.axis_1">
    <g id="xtick_1">
     <g id="line2d_1">
      <defs>
       <path id="maff2861cbf" d="M 0 0 
L 0 3.5 
" style="stroke: #000000; stroke-width: 0.8"/>
      </defs>
      <g>
       <use xlink:href="#maff2861cbf" x="53.177924" y="318.76" style="stroke: #000000; stroke-width: 0.8"/>
      </g>
     </g>
     <g id="text_1">
      <text style="font: 10px 'Arial', 'Helvetica', 'DejaVu Sans', sans-serif; text-anchor: middle" x="53.177924" y="333.358438" transform="rotate(-0 53.177924 333.358438)">0.0</text>
     </g>
    </g>
    <g id="xtick_2">
     <g id="line2d_2">
      <g>
       <use xlink:href="#maff2861cbf" x="128.403876" y="318.76" style="stroke: #000000; stroke-width: 0.8"/>
      </g>
     </g>
     <g id="text_2">
      <text style="font: 10px 'Arial', 'Helvetica', 'DejaVu Sans', sans-serif; text-anchor: middle" x="128.403876" y="333.358438" transform="rotate(-0 128.403876 333.358438)">0.2</text>
     </g>
    </g>
    <g id="xtick_3">
     <g id="line2d_3">
      <g>
       <use xlink:href="#maff2861cbf" x="203.629829" y="318.76" style="stroke: #000000; stroke-width: 0.8"/>
      </g>
     </g>
     <g id="text_3">
      <text style="font: 10px 'Arial', 'Helvetica', 'DejaVu Sans', sans-serif; text-anchor: middle" x="203.629829" y="333.358438" transform="rotate(-0 203.629829 333.358438)">0.4</text>
     </g>
    </g>
    <g id="xtick_4">
     <g id="line2d_4">
      <g>
       <use xlink:href="#maff2861cbf" x="278.855781" y="318.76" style="stroke: #000000; stroke-width: 0.8"/>
      </g>
     </g>
     <g id="text_4">
      <text style="font: 10px 'Arial', 'Helvetica', 'DejaVu Sans', sans-serif; text-anchor: middle" x="278.855781" y="333.358438" transform="rotate(-0 278.855781 333.358438)">0.6</text>
     </g>
    </g>
    <g id="xtick_5">
     <g id="line2d_5">
      <g>
       <use xlink:href="#maff2861cbf" x="354.081734" y="318.76" style="stroke: #000000; stroke-width: 0.8"/>
      </g>
     </g>
     <g id="text_5">
      <text style="font: 10px 'Arial', 'Helvetica', 'DejaVu Sans', sans-serif; text-anchor: middle" x="354.081734" y="333.358438" transform="rotate(-0 354.081734 333.358438)">0.8</text>
     </g>
    </g>
    <g id="text_6">
     <text style="font: 9px 'Arial', 'Helvetica', 'DejaVu Sans', sans-serif; text-anchor: middle" x="234.556053" y="346.276719" transform="rotate(-0 234.556053 346.276719)">Forecast Horizon (Hours)</text>
    </g>
   </g>
   <g id="matplotlib.axis_2">
    <g id="ytick_1">
     <g id="line2d_6">
      <defs>
       <path id="m4bd7230e25" d="M 0 0 
L -3.5 0 
" style="stroke: #000000; stroke-width: 0.8"/>
      </defs>
      <g>
       <use xlink:href="#m4bd7230e25" x="47.912107" y="300.409157" style="stroke: #000000; stroke-width: 0.8"/>
      </g>
     </g>
     <g id="text_7">
      <!-- $\mathdefault{0.1}$ -->
      <g transform="translate(24.912107 304.208376)">
       <text>
        <tspan style="font: 10px 'DejaVu Sans'" x="0 6.362305 9.541016" y="-0.578125">0.1</tspan>
       </text>
      </g>
     </g>
    </g>
    <g id="ytick_2">
     <g id="line2d_7">
      <g>
       <use xlink:href="#m4bd7230e25" x="47.912107" y="246.108763" style="stroke: #000000; stroke-width: 0.8"/>
      </g>
     </g>
     <g id="text_8">
      <!-- $\mathdefault{0.2}$ -->
      <g transform="translate(25.512107 249.907982)">
       <text>
        <tspan style="font: 10px 'DejaVu Sans'" x="0 6.362305 9.041016" y="-0.578125">0.2</tspan>
       </text>
      </g>
     </g>
    </g>
    <g id="ytick_3">
     <g id="line2d_8">
      <g>
       <use xlink:href="#m4bd7230e25" x="47.912107" y="191.808369" style="stroke: #000000; stroke-width: 0.8"/>
      </g>
     </g>
     <g id="text_9">
      <!-- $\mathdefault{0.3}$ -->
      <g transform="translate(24.912107 195.607588)">
       <text>
        <tspan style="font: 10px 'DejaVu Sans'" x="0 6.362305 9.541016" y="-0.578125">0.3</tspan>
       </text>
      </g>
     </g>
    </g>
    <g id="ytick_4">
     <g id="line2d_9">
      <g>
       <use xlink:href="#m4bd7230e25" x="47.912107" y="137.507975" style="stroke: #000000; stroke-width: 0.8"/>
      </g>
     </g>
     <g id="text_10">
      <!-- $\mathdefault{0.4}$ -->
      <g transform="translate(24.912107 141.307194)">
       <text>
        <tspan style="font: 10px 'DejaVu Sans'" x="0 6.362305 9.541016" y="-0.578125">0.4</tspan>
       </text>
      </g>
     </g>
    </g>
    <g id="ytick_5">
     <g id="line2d_10">
      <g>
       <use xlink:href="#m4bd7230e25" x="47.912107" y="83.207581" style="stroke: #000000; stroke-width: 0.8"/>
      </g>
     </g>
     <g id="text_11">
      <!-- $\mathdefault{0.5}$ -->
      <g transform="translate(24.912107 87.006799)">
       <text>
        <tspan style="font: 10px 'DejaVu Sans'" x="0 6.362305 9.541016" y="-0.578125">0.5</tspan>
       </text>
      </g>
     </g>
    </g>
    <g id="ytick_6">
     <g id="line2d_11">
      <g>
       <use xlink:href="#m4bd7230e25" x="47.912107" y="28.907187" style="stroke: #000000; stroke-width: 0.8"/>
      </g>
     </g>
     <g id="text_12">
      <!-- $\mathdefault{0.6}$ -->
      <g transform="translate(24.912107 32.706405)">
       <text>
        <tspan style="font: 10px 'DejaVu Sans'" x="0 6.362305 9.541016" y="-0.578125">0.6</tspan>
       </text>
      </g>
     </g>
    </g>
    <g id="text_13">
     <text style="font: 9px 'Arial', 'Helvetica', 'DejaVu Sans', sans-serif; text-anchor: middle" x="19.040388" y="164.78" transform="rotate(-90 19.040388 164.78)">1 - SSIM</text>
    </g>
   </g>
   <g id="line2d_12">
    <path d="M 64.879738 292.1733 
L 76.581553 273.310277 
L 88.283368 259.873448 
L 99.985183 239.522091 
L 111.686998 216.947771 
L 123.388813 190.426913 
L 135.090627 174.229021 
L 146.792442 158.393591 
L 158.494257 146.61247 
L 170.196072 138.69919 
L 181.897887 128.271833 
L 193.599702 125.314416 
L 205.301516 120.789206 
L 217.003331 118.254346 
L 228.705146 116.935293 
L 240.406961 112.6631 
L 252.108776 114.289089 
L 263.810591 110.829737 
L 275.512405 107.527514 
L 287.21422 109.69891 
L 298.916035 109.815787 
L 310.61785 107.249493 
L 322.319665 107.223023 
L 334.02148 106.378863 
L 345.723294 107.174994 
L 357.425109 106.098649 
L 369.126924 104.662341 
L 380.828739 104.967609 
L 392.530554 104.518469 
L 404.232368 103.899761 
" clip-path="url(#p5e2f79938a)" style="fill: none; stroke: #e64b35; stroke-opacity: 0.9; stroke-width: 1.5; stroke-linecap: square"/>
    <defs>
     <path id="mb19d2da8e8" d="M 0 2 
C 0.530406 2 1.03916 1.789267 1.414214 1.414214 
C 1.789267 1.03916 2 0.530406 2 0 
C 2 -0.530406 1.789267 -1.03916 1.414214 -1.414214 
C 1.03916 -1.789267 0.530406 -2 0 -2 
C -0.530406 -2 -1.03916 -1.789267 -1.414214 -1.414214 
C -1.789267 -1.03916 -2 -0.530406 -2 0 
C -2 0.530406 -1.789267 1.03916 -1.414214 1.414214 
C -1.03916 1.789267 -0.530406 2 0 2 
z
" style="stroke: #e64b35; stroke-opacity: 0.9"/>
    </defs>
    <g clip-path="url(#p5e2f79938a)">
     <use xlink:href="#mb19d2da8e8" x="64.879738" y="292.1733" style="fill: #e64b35; fill-opacity: 0.9; stroke: #e64b35; stroke-opacity: 0.9"/>
     <use xlink:href="#mb19d2da8e8" x="99.985183" y="239.522091" style="fill: #e64b35; fill-opacity: 0.9; stroke: #e64b35; stroke-opacity: 0.9"/>
     <use xlink:href="#mb19d2da8e8" x="135.090627" y="174.229021" style="fill: #e64b35; fill-opacity: 0.9; stroke: #e64b35; stroke-opacity: 0.9"/>
     <use xlink:href="#mb19d2da8e8" x="170.196072" y="138.69919" style="fill: #e64b35; fill-opacity: 0.9; stroke: #e64b35; stroke-opacity: 0.9"/>
     <use xlink:href="#mb19d2da8e8" x="205.301516" y="120.789206" style="fill: #e64b35; fill-opacity: 0.9; stroke: #e64b35; stroke-opacity: 0.9"/>
     <use xlink:href="#mb19d2da8e8" x="240.406961" y="112.6631" style="fill: #e64b35; fill-opacity: 0.9; stroke: #e64b35; stroke-opacity: 0.9"/>
     <use xlink:href="#mb19d2da8e8" x="275.512405" y="107.527514" style="fill: #e64b35; fill-opacity: 0.9; stroke: #e64b35; stroke-opacity: 0.9"/>
     <use xlink:href="#mb19d2da8e8" x="310.61785" y="107.249493" style="fill: #e64b35; fill-opacity: 0.9; stroke: #e64b35; stroke-opacity: 0.9"/>
     <use xlink:href="#mb19d2da8e8" x="345.723294" y="107.174994" style="fill: #e64b35; fill-opacity: 0.9; stroke: #e64b35; stroke-opacity: 0.9"/>
     <use xlink:href="#mb19d2da8e8" x="380.828739" y="104.967609" style="fill: #e64b35; fill-opacity: 0.9; stroke: #e64b35; stroke-opacity: 0.9"/>
    </g>
   </g>
   <g id="line2d_13">
    <path d="M 64.879738 281.108796 
L 76.581553 257.256867 
L 88.283368 233.371061 
L 99.985183 208.534397 
L 111.686998 175.321344 
L 123.388813 144.171921 
L 135.090627 122.177138 
L 146.792442 101.388195 
L 158.494257 86.799801 
L 170.196072 80.400249 
L 181.897887 67.120758 
L 193.599702 61.508258 
L 205.301516 54.217084 
L 217.003331 50.619968 
L 228.705146 48.978905 
L 240.406961 43.632186 
L 252.108776 45.528446 
L 263.810591 43.164624 
L 275.512405 40.55588 
L 287.21422 41.32805 
L 298.916035 44.981223 
L 310.61785 38.790872 
L 322.319665 41.876892 
L 334.02148 43.328532 
L 345.723294 40.330953 
L 357.425109 36.955679 
L 369.126924 36.69584 
L 380.828739 37.642724 
L 392.530554 35.501742 
L 404.232368 33.327544 
" clip-path="url(#p5e2f79938a)" style="fill: none; stroke: #4dbbd5; stroke-opacity: 0.9; stroke-width: 1.5; stroke-linecap: square"/>
    <defs>
     <path id="mead88f5c8d" d="M -2 2 
L 2 2 
L 2 -2 
L -2 -2 
z
" style="stroke: #4dbbd5; stroke-opacity: 0.9; stroke-linejoin: miter"/>
    </defs>
    <g clip-path="url(#p5e2f79938a)">
     <use xlink:href="#mead88f5c8d" x="64.879738" y="281.108796" style="fill: #4dbbd5; fill-opacity: 0.9; stroke: #4dbbd5; stroke-opacity: 0.9; stroke-linejoin: miter"/>
     <use xlink:href="#mead88f5c8d" x="99.985183" y="208.534397" style="fill: #4dbbd5; fill-opacity: 0.9; stroke: #4dbbd5; stroke-opacity: 0.9; stroke-linejoin: miter"/>
     <use xlink:href="#mead88f5c8d" x="135.090627" y="122.177138" style="fill: #4dbbd5; fill-opacity: 0.9; stroke: #4dbbd5; stroke-opacity: 0.9; stroke-linejoin: miter"/>
     <use xlink:href="#mead88f5c8d" x="170.196072" y="80.400249" style="fill: #4dbbd5; fill-opacity: 0.9; stroke: #4dbbd5; stroke-opacity: 0.9; stroke-linejoin: miter"/>
     <use xlink:href="#mead88f5c8d" x="205.301516" y="54.217084" style="fill: #4dbbd5; fill-opacity: 0.9; stroke: #4dbbd5; stroke-opacity: 0.9; stroke-linejoin: miter"/>
     <use xlink:href="#mead88f5c8d" x="240.406961" y="43.632186" style="fill: #4dbbd5; fill-opacity: 0.9; stroke: #4dbbd5; stroke-opacity: 0.9; stroke-linejoin: miter"/>
     <use xlink:href="#mead88f5c8d" x="275.512405" y="40.55588" style="fill: #4dbbd5; fill-opacity: 0.9; stroke: #4dbbd5; stroke-opacity: 0.9; stroke-linejoin: miter"/>
     <use xlink:href="#mead88f5c8d" x="310.61785" y="38.790872" style="fill: #4dbbd5; fill-opacity: 0.9; stroke: #4dbbd5; stroke-opacity: 0.9; stroke-linejoin: miter"/>
     <use xlink:href="#mead88f5c8d" x="345.723294" y="40.330953" style="fill: #4dbbd5; fill-opacity: 0.9; stroke: #4dbbd5; stroke-opacity: 0.9; stroke-linejoin: miter"/>
     <use xlink:href="#mead88f5c8d" x="380.828739" y="37.642724" style="fill: #4dbbd5; fill-opacity: 0.9; stroke: #4dbbd5; stroke-opacity: 0.9; stroke-linejoin: miter"/>
    </g>
   </g>
   <g id="line2d_14">
    <path d="M 64.879738 288.588061 
L 76.581553 255.997971 
L 88.283368 256.664094 
L 99.985183 234.155889 
L 111.686998 209.591863 
L 123.388813 171.794672 
L 135.090627 149.202621 
L 146.792442 125.050121 
L 158.494257 114.313937 
L 170.196072 99.513413 
L 181.897887 85.145171 
L 193.599702 79.833123 
L 205.301516 76.375799 
L 217.003331 72.013898 
L 228.705146 71.324597 
L 240.406961 68.497959 
L 252.108776 71.405953 
L 263.810591 65.303961 
L 275.512405 62.513333 
L 287.21422 62.950636 
L 298.916035 58.167954 
L 310.61785 63.665621 
L 322.319665 58.095478 
L 334.02148 57.161743 
L 345.723294 54.165096 
L 357.425109 48.633775 
L 369.126924 44.540363 
L 380.828739 46.703898 
L 392.530554 44.544379 
L 404.232368 47.418296 
" clip-path="url(#p5e2f79938a)" style="fill: none; stroke: #00a087; stroke-opacity: 0.9; stroke-width: 1.5; stroke-linecap: square"/>
    <defs>
     <path id="mc8557613cb" d="M 0 -2 
L -2 2 
L 2 2 
z
" style="stroke: #00a087; stroke-opacity: 0.9; stroke-linejoin: miter"/>
    </defs>
    <g clip-path="url(#p5e2f79938a)">
     <use xlink:href="#mc8557613cb" x="64.879738" y="288.588061" style="fill: #00a087; fill-opacity: 0.9; stroke: #00a087; stroke-opacity: 0.9; stroke-linejoin: miter"/>
     <use xlink:href="#mc8557613cb" x="99.985183" y="234.155889" style="fill: #00a087; fill-opacity: 0.9; stroke: #00a087; stroke-opacity: 0.9; stroke-linejoin: miter"/>
     <use xlink:href="#mc8557613cb" x="135.090627" y="149.202621" style="fill: #00a087; fill-opacity: 0.9; stroke: #00a087; stroke-opacity: 0.9; stroke-linejoin: miter"/>
     <use xlink:href="#mc8557613cb" x="170.196072" y="99.513413" style="fill: #00a087; fill-opacity: 0.9; stroke: #00a087; stroke-opacity: 0.9; stroke-linejoin: miter"/>
     <use xlink:href="#mc8557613cb" x="205.301516" y="76.375799" style="fill: #00a087; fill-opacity: 0.9; stroke: #00a087; stroke-opacity: 0.9; stroke-linejoin: miter"/>
     <use xlink:href="#mc8557613cb" x="240.406961" y="68.497959" style="fill: #00a087; fill-opacity: 0.9; stroke: #00a087; stroke-opacity: 0.9; stroke-linejoin: miter"/>
     <use xlink:href="#mc8557613cb" x="275.512405" y="62.513333" style="fill: #00a087; fill-opacity: 0.9; stroke: #00a087; stroke-opacity: 0.9; stroke-linejoin: miter"/>
     <use xlink:href="#mc8557613cb" x="310.61785" y="63.665621" style="fill: #00a087; fill-opacity: 0.9; stroke: #00a087; stroke-opacity: 0.9; stroke-linejoin: miter"/>
     <use xlink:href="#mc8557613cb" x="345.723294" y="54.165096" style="fill: #00a087; fill-opacity: 0.9; stroke: #00a087; stroke-opacity: 0.9; stroke-linejoin: miter"/>
     <use xlink:href="#mc8557613cb" x="380.828739" y="46.703898" style="fill: #00a087; fill-opacity: 0.9; stroke: #00a087; stroke-opacity: 0.9; stroke-linejoin: miter"/>
    </g>
   </g>
   <g id="patch_3">
    <path d="M 47.912107 318.76 
L 47.912107 10.8 
" style="fill: none; stroke: #000000; stroke-linejoin: miter; stroke-linecap: square"/>
   </g>
   <g id="patch_4">
    <path d="M 47.912107 318.76 
L 421.2 318.76 
" style="fill: none; stroke: #000000; stroke-linejoin: miter; stroke-linecap: square"/>
   </g>
   <g id="legend_1">
    <g id="line2d_15">
     <path d="M 55.112107 21.27875 
L 63.112107 21.27875 
L 71.112107 21.27875 
" style="fill: none; stroke: #e64b35; stroke-opacity: 0.9; stroke-width: 1.5; stroke-linecap: square"/>
     <g>
      <use xlink:href="#mb19d2da8e8" x="63.112107" y="21.27875" style="fill: #e64b35; fill-opacity: 0.9; stroke: #e64b35; stroke-opacity: 0.9"/>
     </g>
    </g>
    <g id="text_14">
     <text style="font: 8px 'Arial', 'Helvetica', 'DejaVu Sans', sans-serif; text-anchor: start" x="77.512107" y="24.07875" transform="rotate(-0 77.512107 24.07875)">BMP</text>
    </g>
    <g id="line2d_16">
     <path d="M 55.112107 33.02125 
L 63.112107 33.02125 
L 71.112107 33.02125 
" style="fill: none; stroke: #4dbbd5; stroke-opacity: 0.9; stroke-width: 1.5; stroke-linecap: square"/>
     <g>
      <use xlink:href="#mead88f5c8d" x="63.112107" y="33.02125" style="fill: #4dbbd5; fill-opacity: 0.9; stroke: #4dbbd5; stroke-opacity: 0.9; stroke-linejoin: miter"/>
     </g>
    </g>
    <g id="text_15">
     <text style="font: 8px 'Arial', 'Helvetica', 'DejaVu Sans', sans-serif; text-anchor: start" x="77.512107" y="35.82125" transform="rotate(-0 77.512107 35.82125)">Nodal</text>
    </g>
    <g id="line2d_17">
     <path d="M 55.112107 44.76375 
L 63.112107 44.76375 
L 71.112107 44.76375 
" style="fill: none; stroke: #00a087; stroke-opacity: 0.9; stroke-width: 1.5; stroke-linecap: square"/>
     <g>
      <use xlink:href="#mc8557613cb" x="63.112107" y="44.76375" style="fill: #00a087; fill-opacity: 0.9; stroke: #00a087; stroke-opacity: 0.9; stroke-linejoin: miter"/>
     </g>
    </g>
    <g id="text_16">
     <text style="font: 8px 'Arial', 'Helvetica', 'DejaVu Sans', sans-serif; text-anchor: start" x="77.512107" y="47.56375" transform="rotate(-0 77.512107 47.56375)">Normal</text>
    </g>
   </g>
  </g>
 </g>
 <defs>
  <clipPath id="p5e2f79938a">
   <rect x="47.912107" y="10.8" width="373.287893" height="307.96"/>
  </clipPath>
 </defs>
</svg>
